<?xml version="1.0" encoding="UTF-8"?>
<svg width="162px" height="44px" viewBox="0 0 162 44" version="1.1" xmlns="http://www.w3.org/2000/svg" xmlns:xlink="http://www.w3.org/1999/xlink">
    <!-- Generator: Sketch 63.1 (92452) - https://sketch.com -->
    <title>Logo/Ugitech/variation</title>
    <desc>Created with Sketch.</desc>
    <defs>
        <linearGradient x1="9.76507968%" y1="41.8416186%" x2="90.2342789%" y2="58.1558725%" id="linearGradient-1">
            <stop stop-color="#0E5389" offset="0%"></stop>
            <stop stop-color="#486EA1" offset="6.43%"></stop>
            <stop stop-color="#C5CEE3" offset="21.12%"></stop>
            <stop stop-color="#FFFFFF" offset="26.97%"></stop>
            <stop stop-color="#F8F9FD" offset="29.12%"></stop>
            <stop stop-color="#E4E8F6" offset="32.63%"></stop>
            <stop stop-color="#C3CEEA" offset="37.06%"></stop>
            <stop stop-color="#94ACD9" offset="42.19%"></stop>
            <stop stop-color="#7E9CD1" offset="44.38%"></stop>
            <stop stop-color="#6384B6" offset="65.04%"></stop>
            <stop stop-color="#597BAC" offset="76.4%"></stop>
            <stop stop-color="#4A71A6" offset="83.56%"></stop>
            <stop stop-color="#1D5D99" offset="98.08%"></stop>
            <stop stop-color="#105A97" offset="100%"></stop>
        </linearGradient>
    </defs>
    <g id="Logo/Ugitech/variation" stroke="none" stroke-width="1" fill="none" fill-rule="evenodd">
        <g id="Logo/Ugitech" fill-rule="nonzero">
            <g id="Logo/Full/Ugitech">
                <g id="Logo_Schmolz_+_Bickenbach">
                    <g id="g4444" transform="translate(124.572414, 0.545273)">
                        <path d="M18.6228826,0.0116882698 L0.0123506538,10.7332101 L0.0123506538,32.1762455 L18.6228826,42.8977643 L37.2340003,32.1762455 L37.2340003,10.7332101 L18.6228826,0.0116882698 Z M16.1269925,35.5477959 L16.0981284,35.5313448 L6.15402162,29.8016475 L6.18228812,29.7857867 L16.1269925,24.0572635 L16.1269925,35.5477959 L16.1269925,35.5477959 Z M16.1257973,18.8433757 L16.0969332,18.8269186 L6.15400967,13.0960473 L6.18227617,13.0795902 L16.1269686,7.34871886 L16.1257734,18.8433757 L16.1257973,18.8433757 Z M21.1158086,7.34814644 L21.1458679,7.36519975 L31.0923293,13.0954868 L31.0628676,13.1119438 L21.1158086,18.8445801 L21.1158086,7.34814644 L21.1158086,7.34814644 Z M31.0646245,29.8192738 L21.1158086,35.5477959 L21.1158086,24.0572635 L21.1458679,24.0737205 L31.0940922,29.8016553 L31.0646305,29.819281 L31.0646245,29.8192738 Z" id="path83" fill="#115E9D"></path>
                        <g id="g85" transform="translate(1.307693, 1.480390)" fill="url(#linearGradient-1)">
                            <path d="M0.032383549,10.0089052 L0.032383549,29.9215567 L17.315778,39.8793512 L34.5968174,29.9215567 L34.5968174,10.0089052 L17.315778,0.0487608813 L0.032383549,10.0089052 Z M14.8193008,34.0674066 L14.79045,34.0509571 L4.8463453,28.3212598 L4.87460731,28.3053979 L14.8193008,22.5768755 L14.8193008,34.0674066 L14.8193008,34.0674066 Z M14.8181232,17.3629861 L14.7892724,17.3465367 L4.8463453,11.6156644 L4.87460731,11.5992149 L14.8193008,5.86834269 L14.8181232,17.3629861 Z M19.8081337,5.86775521 L19.8381621,5.88479215 L29.784622,11.6150769 L29.7551824,11.6315264 L19.8081337,17.3641611 L19.8081337,5.86775521 Z M19.8081337,22.5768755 L19.8381621,22.593325 L29.7863884,28.3212598 L29.7569488,28.3388843 L19.8081337,34.0674066 L19.8081337,22.5768755 Z" id="path116"></path>
                        </g>
                        <polygon id="polygon118" fill="#BAC6E2" points="17.0926128 20.5682184 17.0914352 5.62388948 16.1075642 7.38163113 16.1069754 18.8104767"></polygon>
                        <polygon id="polygon120" fill="#DCE2F1" points="4.12447344 13.0954665 17.0926128 20.5682184 16.1069754 18.8104767 6.19289903 13.0954665"></polygon>
                        <polygon id="polygon122" fill="#033A5F" points="6.19289903 13.0954665 16.1075642 7.38163113 17.0914352 5.62388948 4.12447344 13.0954665"></polygon>
                        <polygon id="polygon124" fill="#033A5F" points="20.151975 20.5682184 20.151975 5.62388948 21.1358461 7.38163113 21.1358461 18.8110642"></polygon>
                        <polygon id="polygon126" fill="#0E5389" points="33.1207032 13.0954665 20.151975 5.62388948 21.1358461 7.38163113 31.0528664 13.0954665"></polygon>
                        <polygon id="polygon128" fill="#DCE2F1" points="20.151975 20.5682184 33.1207032 13.0954665 31.0528664 13.0954665 21.1358461 18.8110642"></polygon>
                        <polygon id="polygon130" fill="#033A5F" points="4.12447344 29.8016494 17.0914352 22.3318348 16.1075642 24.0907515 6.19289903 29.8016494"></polygon>
                        <polygon id="polygon132" fill="#BAC6E2" points="17.0914352 37.2744013 17.0914352 22.3318348 16.1075642 24.0907515 16.1075642 35.5143097"></polygon>
                        <polygon id="polygon134" fill="#DCE2F1" points="6.19289903 29.8016494 4.12447344 29.8016494 17.0914352 37.2744013 16.1075642 35.5143097"></polygon>
                        <polygon id="polygon136" fill="#033A5F" points="20.151975 37.2744013 20.151975 22.3318348 21.1358461 24.0907515 21.1358461 35.5143097"></polygon>
                        <polygon id="polygon138" fill="#0E5389" points="33.1207032 29.8016494 20.151975 22.3318348 21.1358461 24.0907515 31.0546328 29.8016494"></polygon>
                        <polygon id="polygon140" fill="#DCE2F1" points="31.0546328 29.8016494 21.1358461 35.5143097 20.151975 37.2744013 33.1207032 29.8016494"></polygon>
                        <polygon id="polygon142" fill="#DCE2F1" points="0.359738674 10.9235511 18.6234715 0.40353778 18.6234715 1.52915041 1.34007702 11.4892948"></polygon>
                        <polygon id="polygon144" fill="#0E5389" points="36.8883819 10.9235511 18.6234715 0.40353778 18.6234715 1.52915041 35.9045108 11.4892948"></polygon>
                        <polygon id="polygon146" fill="#094775" points="35.9045108 31.4019462 35.9045108 11.4892948 36.8883819 10.9235511 36.8883819 31.9635776"></polygon>
                        <polygon id="polygon148" fill="#033A5F" points="35.9045108 31.4019462 36.8883819 31.9635776 18.6234715 42.4847658 18.6234715 41.3597407"></polygon>
                        <polygon id="polygon150" fill="#7693C3" points="1.34007702 31.4019462 18.6234715 41.3597407 18.6234715 42.4847658 0.359738674 31.9635776"></polygon>
                        <polygon id="polygon152" fill="#BAC6E2" points="1.34007702 11.4892948 1.34007702 31.4019462 0.359738674 31.9635776 0.359738674 10.9235511"></polygon>
                        <path d="M18.6228826,0.0116882698 L0.0123506538,10.7332101 L0.0123506538,32.1762455 L18.6228826,42.8977643 L37.2340003,32.1762455 L37.2340003,10.7332101 L18.6228826,0.0116882698 Z M36.888384,31.9635776 L18.6234743,42.484766 L0.359150128,31.9635776 L0.359150128,10.9235513 L18.6234743,0.403538696 L36.888384,10.9235513 L36.888384,31.9635776 L36.888384,31.9635776 Z" id="path154" fill="#000000"></path>
                    </g>
                    <path d="M1.34418103,31.7468354 L1.34418103,29.4776503 L2.78001078,29.4776503 C3.57175377,29.4776503 4.11910022,29.3132994 4.42205011,28.9845975 C4.725,28.6558956 4.87647495,28.2542194 4.87647495,27.7795688 C4.87647495,27.5029008 4.81983095,27.249077 4.70654297,27.0180973 C4.59325498,26.7871176 4.44368939,26.6075372 4.25784617,26.4793562 C4.07200296,26.3511752 3.8416083,26.2642405 3.56666218,26.2185522 C3.37063578,26.1830169 3.08677936,26.1652492 2.71509294,26.1652492 L2.71509294,26.1652492 L0.603353987,26.1652492 L0.603353987,31.7468354 L1.34418103,31.7468354 Z M2.79146686,28.8189775 L1.34418103,28.8189775 L1.34418103,26.8239221 L2.77619208,26.8239221 C3.11223734,26.8239221 3.342632,26.8404206 3.46737608,26.8734177 C3.66085668,26.9267207 3.81678677,27.0364995 3.93516635,27.2027542 C4.05354593,27.3690088 4.11273572,27.568895 4.11273572,27.802413 C4.11273572,28.1247693 4.01217672,28.3747857 3.81105873,28.5524624 C3.60994073,28.7301391 3.27007678,28.8189775 2.79146686,28.8189775 L2.79146686,28.8189775 Z M6.41159079,31.7468354 L6.41159079,29.6299446 C6.41159079,29.3405854 6.44977775,29.0740704 6.52615167,28.8303995 C6.57706762,28.6704905 6.66235183,28.5454823 6.78200431,28.4553748 C6.90165679,28.3652673 7.03658405,28.3202136 7.1867861,28.3202136 C7.35480873,28.3202136 7.52283136,28.3697093 7.69085399,28.4687006 L7.69085399,28.4687006 L7.92761315,27.8328718 C7.68830819,27.685654 7.45282193,27.6120451 7.22115436,27.6120451 C7.06076913,27.6120451 6.91374933,27.6577334 6.78009496,27.74911 C6.6464406,27.8404866 6.5006937,28.0295853 6.34285426,28.3164062 L6.34285426,28.3164062 L6.34285426,27.7034217 L5.72422548,27.7034217 L5.72422548,31.7468354 L6.41159079,31.7468354 Z M9.98207166,31.838212 C10.3359375,31.838212 10.662436,31.7557193 10.9615672,31.5907338 C11.2606984,31.4257483 11.4885473,31.194134 11.6451138,30.895891 C11.8016804,30.597648 11.8799636,30.1883571 11.8799636,29.6680182 C11.8799636,29.0258439 11.7030307,28.5226381 11.3491649,28.1584009 C10.995299,27.7941637 10.5396013,27.6120451 9.98207166,27.6120451 C9.48054957,27.6120451 9.0554014,27.7618012 8.70662716,28.0613133 C8.28911638,28.4217431 8.08036099,28.9763482 8.08036099,29.7251286 C8.08036099,30.4079147 8.25538456,30.9307918 8.60543171,31.2937599 C8.95547885,31.656728 9.41435884,31.838212 9.98207166,31.838212 Z M9.98207166,31.2747231 C9.63838901,31.2747231 9.3532597,31.1459075 9.12668373,30.8882763 C8.90010776,30.6306451 8.78681977,30.2429292 8.78681977,29.7251286 C8.78681977,29.2073279 8.90010776,28.8202466 9.12668373,28.5638845 C9.3532597,28.3075224 9.63838901,28.1793414 9.98207166,28.1793414 C10.3206627,28.1793414 10.6038827,28.308157 10.8317315,28.5657882 C11.0595804,28.8234194 11.1735048,29.2022515 11.1735048,29.7022844 C11.1735048,30.2327762 11.0602169,30.6274723 10.8336409,30.8863726 C10.6070649,31.1452729 10.3232085,31.2747231 9.98207166,31.2747231 Z M14.4537648,31.7468354 L15.9888807,27.7034217 L15.2824219,27.7034217 L14.3812096,30.1705894 C14.2717403,30.4701015 14.1864561,30.7264636 14.125357,30.9396756 C14.0464372,30.6579312 13.9598801,30.3863397 13.8656856,30.1249011 L13.8656856,30.1249011 L12.9950229,27.7034217 L12.2694706,27.7034217 L13.8122239,31.7468354 L14.4537648,31.7468354 Z M17.2872373,26.9533722 L17.2872373,26.1652492 L16.599872,26.1652492 L16.599872,26.9533722 L17.2872373,26.9533722 Z M17.2872373,31.7468354 L17.2872373,27.7034217 L16.599872,27.7034217 L16.599872,31.7468354 L17.2872373,31.7468354 Z M19.830489,31.838212 C20.3294652,31.838212 20.7075162,31.6376912 20.9646417,31.2366495 L20.9646417,31.2366495 L20.9646417,31.7468354 L21.602364,31.7468354 L21.602364,26.1652492 L20.9188173,26.1652492 L20.9188173,28.1679193 C20.7991649,28.0029338 20.6438712,27.8690417 20.4529364,27.7662431 C20.2620016,27.6634444 20.0443359,27.6120451 19.7999394,27.6120451 C19.4664399,27.6120451 19.1647629,27.6996143 18.8949084,27.8747528 C18.6250539,28.0498912 18.422663,28.3018114 18.2877357,28.6305133 C18.1528085,28.9592151 18.0853448,29.325356 18.0853448,29.7289359 C18.0853448,30.1426688 18.1598094,30.5088097 18.3087386,30.8273586 C18.4576677,31.1459075 18.667696,31.3940203 18.9388234,31.571697 C19.2099508,31.7493737 19.5071727,31.838212 19.830489,31.838212 Z M19.8954068,31.2747231 C19.5975485,31.2747231 19.3391501,31.1465421 19.1202115,30.89018 C18.9012729,30.6338179 18.7918036,30.2467366 18.7918036,29.7289359 C18.7918036,29.1933676 18.894272,28.8012098 19.0992086,28.5524624 C19.3041453,28.3037151 19.5593615,28.1793414 19.8648572,28.1793414 C20.1779903,28.1793414 20.4414803,28.3087915 20.6553273,28.5676919 C20.8691743,28.8265922 20.9760978,29.2327103 20.9760978,29.7860463 C20.9760978,30.2886175 20.8710836,30.6623731 20.6610554,30.9073131 C20.4510271,31.1522531 20.1958109,31.2747231 19.8954068,31.2747231 Z M23.374239,26.9533722 L23.374239,26.1652492 L22.6868737,26.1652492 L22.6868737,26.9533722 L23.374239,26.9533722 Z M23.374239,31.7468354 L23.374239,27.7034217 L22.6868737,27.7034217 L22.6868737,31.7468354 L23.374239,31.7468354 Z M25.107927,31.7468354 L25.107927,29.538568 C25.107927,29.0207674 25.214214,28.6692214 25.4267881,28.48393 C25.6393622,28.2986386 25.8920326,28.2059929 26.1847993,28.2059929 C26.3680967,28.2059929 26.5278455,28.2472393 26.6640457,28.329732 C26.8002458,28.4122247 26.8950768,28.5226381 26.9485385,28.6609721 C27.0020003,28.7993061 27.0287311,29.0080762 27.0287311,29.2872824 L27.0287311,29.2872824 L27.0287311,31.7468354 L27.7160964,31.7468354 L27.7160964,29.2606309 C27.7160964,28.9433511 27.7033675,28.7212553 27.6779095,28.5943434 C27.6371767,28.398899 27.5658944,28.2301061 27.4640625,28.0879648 C27.3622306,27.9458234 27.2088463,27.8309682 27.0039096,27.7433989 C26.7989729,27.6558297 26.5743063,27.6120451 26.3299098,27.6120451 C25.7672885,27.6120451 25.3370488,27.834141 25.0391905,28.2783327 L25.0391905,28.2783327 L25.0391905,27.7034217 L24.4205617,27.7034217 L24.4205617,31.7468354 L25.107927,31.7468354 Z M30.247892,33.3878066 C30.6552196,33.3878066 30.9982658,33.3116594 31.2770306,33.1593651 C31.5557954,33.0070708 31.7594592,32.7995698 31.888022,32.5368621 C32.0165847,32.2741545 32.0808661,31.8280591 32.0808661,31.1985759 L32.0808661,31.1985759 L32.0808661,27.7034217 L31.4469626,27.7034217 L31.4469626,28.1907634 C31.1363753,27.8049512 30.7417767,27.6120451 30.2631668,27.6120451 C29.9042093,27.6120451 29.5917127,27.7008834 29.3256769,27.8785601 C29.059641,28.0562368 28.8566137,28.308157 28.7165948,28.6343206 C28.576576,28.9604842 28.5065665,29.3164722 28.5065665,29.7022844 C28.5065665,30.2632351 28.6593144,30.7442313 28.9648101,31.1452729 C29.2703058,31.5463146 29.7018184,31.7468354 30.2593481,31.7468354 C30.7074084,31.7468354 31.0816406,31.5704279 31.3820447,31.2176127 C31.3845905,31.6643427 31.3680428,31.9575092 31.3324017,32.0971123 C31.2713025,32.3255538 31.1541959,32.5032305 30.9810816,32.6301424 C30.8079674,32.7570543 30.562298,32.8205103 30.2440733,32.8205103 C29.9487608,32.8205103 29.7158203,32.7570543 29.5452519,32.6301424 C29.417962,32.5362276 29.3403152,32.3864715 29.3123114,32.1808742 L29.3123114,32.1808742 L28.6440396,32.0818829 C28.6338564,32.5184599 28.777694,32.8452581 29.0755523,33.0622775 C29.3734106,33.2792969 29.7641905,33.3878066 30.247892,33.3878066 Z M30.3242659,31.1795392 C30.0060412,31.1795392 29.7412783,31.0577037 29.5299771,30.8140328 C29.3186759,30.5703619 29.2130253,30.1832806 29.2130253,29.6527888 C29.2130253,29.165447 29.3199488,28.798037 29.5337958,28.5505587 C29.7476428,28.3030805 30.0073141,28.1793414 30.3128098,28.1793414 C30.6233971,28.1793414 30.8887965,28.3049842 31.1090079,28.5562698 C31.3292194,28.8075554 31.4393252,29.1806764 31.4393252,29.6756329 C31.4393252,30.1934335 31.3324017,30.5735347 31.1185547,30.8159365 C30.9047077,31.0583383 30.6399448,31.1795392 30.3242659,31.1795392 Z M36.7511315,31.838212 C37.0693561,31.838212 37.3544855,31.7830053 37.6065194,31.672592 C37.8585533,31.5621786 38.0513975,31.4060769 38.1850519,31.204287 C38.3187062,31.002497 38.3855334,30.7873813 38.3855334,30.5589399 C38.3855334,30.3254219 38.3307988,30.1299776 38.2213295,29.9726068 C38.1118602,29.815236 37.9610217,29.6953043 37.768814,29.6128115 C37.5766063,29.5303188 37.2373788,29.4243473 36.7511315,29.2948972 C36.4150862,29.2035206 36.2126953,29.1451411 36.1439588,29.1197587 C36.0243063,29.0715322 35.9364763,29.0106145 35.8804687,28.9370055 C35.8244612,28.8659349 35.7964574,28.7859804 35.7964574,28.697142 C35.7964574,28.5575389 35.8639211,28.4357035 35.9988483,28.3316357 C36.1337756,28.2275679 36.3590787,28.175534 36.6747575,28.175534 C36.9420663,28.175534 37.1489123,28.2339135 37.2952957,28.3506725 C37.441679,28.4674314 37.5301455,28.6298787 37.560695,28.8380142 L37.560695,28.8380142 L38.2327856,28.7466377 C38.189507,28.4851991 38.1105873,28.276429 37.9960264,28.1203273 C37.8814655,27.9642257 37.7038961,27.8404866 37.4633183,27.74911 C37.2227404,27.6577334 36.9433392,27.6120451 36.6251145,27.6120451 C36.4138133,27.6120451 36.2158776,27.6393312 36.0313072,27.6939033 C35.8467369,27.7484754 35.70099,27.8151042 35.5940665,27.8937896 C35.4515019,27.9953191 35.3388504,28.1228656 35.2561119,28.276429 C35.1733735,28.4299924 35.1320043,28.5968816 35.1320043,28.7770965 C35.1320043,28.9750791 35.1822838,29.1559286 35.2828428,29.319645 C35.3834018,29.4833614 35.5310581,29.6115424 35.7258116,29.7041881 C35.9205651,29.7968338 36.2699758,29.9066126 36.7740436,30.0335245 C37.1482759,30.1274393 37.3824892,30.2048556 37.4766837,30.2657733 C37.611611,30.3546117 37.6790746,30.4764471 37.6790746,30.6312797 C37.6790746,30.8038799 37.6027007,30.9542705 37.4499529,31.0824515 C37.297205,31.2106326 37.0629916,31.2747231 36.7473128,31.2747231 C36.4341797,31.2747231 36.1904196,31.2023833 36.0160325,31.0577037 C35.8416453,30.9130241 35.7353583,30.7048886 35.6971713,30.4332971 L35.6971713,30.4332971 L35.0174434,30.5399031 C35.0938173,30.9688654 35.2701138,31.2924908 35.5463328,31.5107793 C35.8225519,31.7290678 36.2241514,31.838212 36.7511315,31.838212 Z M39.8900997,33.29643 L39.8900997,31.3280261 C40.0072064,31.4752439 40.156772,31.5970794 40.3387965,31.6935324 C40.520821,31.7899855 40.7263941,31.838212 40.9555159,31.838212 C41.268649,31.838212 41.5671437,31.7500082 41.8510001,31.5736007 C42.1348565,31.3971931 42.3512493,31.1433693 42.5001785,30.8121292 C42.6491076,30.480889 42.7235722,30.1084026 42.7235722,29.6946697 C42.7235722,29.3088575 42.6561086,28.9541386 42.5211813,28.6305133 C42.386254,28.3068879 42.1864089,28.0562368 41.921646,27.8785601 C41.6568831,27.7008834 41.3513874,27.6120451 41.0051589,27.6120451 C40.740396,27.6120451 40.5150929,27.6634444 40.3292497,27.7662431 C40.1434065,27.8690417 39.9766568,28.0232397 39.8290005,28.228837 L39.8290005,28.228837 L39.8290005,27.7034217 L39.2027344,27.7034217 L39.2027344,33.29643 L39.8900997,33.29643 Z M40.9096915,31.2747231 C40.6092874,31.2747231 40.3534348,31.1503494 40.1421336,30.9016021 C39.9308324,30.6528547 39.8251818,30.2683116 39.8251818,29.7479727 C39.8251818,29.2276338 39.9378334,28.8310341 40.1631364,28.5581735 C40.3884395,28.2853128 40.6474744,28.1488825 40.9402411,28.1488825 C41.2355536,28.1488825 41.4894969,28.2770636 41.702071,28.5334256 C41.9146451,28.7897877 42.0209321,29.1755999 42.0209321,29.6908623 C42.0209321,30.2315071 41.9120993,30.6306451 41.6944336,30.8882763 C41.4767679,31.1459075 41.2151872,31.2747231 40.9096915,31.2747231 Z M45.2553677,31.838212 C45.7263402,31.838212 46.1133015,31.7239913 46.4162513,31.4955498 C46.7192012,31.2671084 46.9266837,30.9460212 47.0386988,30.5322884 L47.0386988,30.5322884 L46.3284213,30.4447191 C46.2240436,30.7340783 46.0827519,30.9447521 45.9045461,31.0767405 C45.7263402,31.2087289 45.5112204,31.2747231 45.2591864,31.2747231 C44.9205954,31.2747231 44.6380119,31.156695 44.4114359,30.9206388 C44.1848599,30.6845827 44.0588429,30.3444587 44.033385,29.900267 L44.033385,29.900267 L47.0577923,29.900267 C47.0603381,29.8190434 47.061611,29.7581257 47.061611,29.7175138 C47.061611,29.0499571 46.8897697,28.5321565 46.546087,28.1641119 C46.2024044,27.7960674 45.7594356,27.6120451 45.2171808,27.6120451 C44.6571053,27.6120451 44.2014076,27.7998747 43.8500876,28.175534 C43.4987675,28.5511933 43.3231075,29.0791469 43.3231075,29.7593948 C43.3231075,30.4167985 43.4968582,30.927619 43.8443595,31.2918562 C44.1918609,31.6560934 44.6621969,31.838212 45.2553677,31.838212 Z M46.3360587,29.3367781 L44.0715719,29.3367781 C44.0944841,28.9839629 44.2135001,28.7022185 44.42862,28.4915447 C44.6437399,28.2808709 44.9091393,28.175534 45.2248182,28.175534 C45.5735924,28.175534 45.8574488,28.3075224 46.0763874,28.5714992 C46.218952,28.7415612 46.3055092,28.9966541 46.3360587,29.3367781 L46.3360587,29.3367781 Z M49.5361261,31.838212 C49.9790948,31.838212 50.3526906,31.7068582 50.6569134,31.4441505 C50.9611362,31.1814428 51.1501616,30.8178402 51.2239898,30.3533426 L51.2239898,30.3533426 L50.5480805,30.2657733 C50.4997104,30.6084355 50.3851495,30.8622594 50.2043979,31.0272449 C50.0236463,31.1922304 49.7983432,31.2747231 49.5284887,31.2747231 C49.1924434,31.2747231 48.9200431,31.1516185 48.7112877,30.9054094 C48.5025323,30.6592003 48.3981546,30.2645042 48.3981546,29.7213212 C48.3981546,29.1857529 48.506351,28.7942296 48.7227438,28.5467514 C48.9391366,28.2992731 49.2204472,28.175534 49.5666756,28.175534 C49.7957974,28.175534 49.9911874,28.2440665 50.1528455,28.3811313 C50.3145036,28.5181962 50.4271552,28.7225244 50.4908001,28.9941159 L50.4908001,28.9941159 L51.1590719,28.8913172 C51.0801522,28.4826609 50.9006735,28.1672847 50.6206358,27.9451889 C50.3405981,27.723093 49.9803677,27.6120451 49.5399448,27.6120451 C49.1911705,27.6120451 48.8684907,27.6939033 48.5719053,27.8576197 C48.2753199,28.021336 48.054472,28.2669106 47.9093615,28.5943434 C47.7642511,28.9217761 47.6916959,29.303781 47.6916959,29.740358 C47.6916959,30.4155294 47.8603549,30.9339646 48.1976731,31.2956636 C48.5349912,31.6573625 48.9811422,31.838212 49.5361261,31.838212 Z M52.503253,26.9533722 L52.503253,26.1652492 L51.8158877,26.1652492 L51.8158877,26.9533722 L52.503253,26.9533722 Z M52.503253,31.7468354 L52.503253,27.7034217 L51.8158877,27.7034217 L51.8158877,31.7468354 L52.503253,31.7468354 Z M54.7028219,31.838212 C54.9726765,31.838212 55.2253468,31.7937929 55.4608331,31.7049545 C55.6963194,31.6161162 55.9413524,31.4638219 56.1959321,31.2480716 C56.2162985,31.4384395 56.2621228,31.6046941 56.3334052,31.7468354 L56.3334052,31.7468354 L57.05132,31.7468354 C56.9647629,31.5920029 56.906846,31.4301902 56.8775694,31.2613973 C56.8482927,31.0926045 56.8336544,30.6896592 56.8336544,30.0525613 L56.8336544,29.1387955 C56.8336544,28.8342069 56.8221983,28.6235331 56.7992861,28.5067741 C56.7585533,28.3189445 56.687271,28.1634774 56.5854391,28.0403728 C56.4836072,27.9172683 56.3244949,27.8151042 56.1081021,27.7338805 C55.8917093,27.6526569 55.6103987,27.6120451 55.2641703,27.6120451 C54.915396,27.6120451 54.6086274,27.6596371 54.3438645,27.754821 C54.0791016,27.8500049 53.8767107,27.9858007 53.7366918,28.1622083 C53.596673,28.3386158 53.496114,28.5702301 53.4350148,28.857051 L53.4350148,28.857051 L54.1071053,28.9484276 C54.1809335,28.6616067 54.2948579,28.4617204 54.4488786,28.3487688 C54.6028994,28.2358172 54.8415679,28.1793414 55.1648842,28.1793414 C55.5111126,28.1793414 55.7720568,28.2567576 55.9477169,28.4115902 C56.0775525,28.5258109 56.1424704,28.7225244 56.1424704,29.0017306 C56.1424704,29.027113 56.1411975,29.0867616 56.1386517,29.1806764 C55.8764345,29.272053 55.4678341,29.3507384 54.9128502,29.4167326 C54.6404499,29.4497297 54.4367861,29.4839959 54.3018588,29.5195312 C54.1185614,29.570296 53.953721,29.6451741 53.8073377,29.7441653 C53.6609543,29.8431566 53.5425748,29.9745105 53.4521989,30.1382269 C53.3618231,30.3019432 53.3166352,30.4827927 53.3166352,30.6807753 C53.3166352,31.018361 53.4362877,31.2956636 53.6755927,31.512683 C53.9148976,31.7297023 54.2573074,31.838212 54.7028219,31.838212 Z M54.8670259,31.3013746 C54.5997171,31.3013746 54.3966898,31.2404569 54.2579438,31.1186214 C54.1191979,30.996786 54.0498249,30.8444917 54.0498249,30.6617385 C54.0498249,30.5424413 54.0816474,30.4339316 54.1452923,30.3362095 C54.2089372,30.2384873 54.299313,30.1642438 54.4164197,30.113479 C54.5335264,30.0627143 54.7333715,30.017026 55.015955,29.9764142 C55.5149313,29.9053435 55.8891635,29.8190434 56.1386517,29.7175138 L56.1386517,29.7175138 L56.1386517,29.9687994 C56.1386517,30.2708498 56.1017376,30.4992913 56.0279095,30.6541238 C55.9311692,30.8546446 55.7796942,31.01265 55.5734846,31.1281398 C55.3672751,31.2436297 55.1317888,31.3013746 54.8670259,31.3013746 Z M58.5711611,31.7468354 L58.5711611,26.1652492 L57.8837958,26.1652492 L57.8837958,31.7468354 L58.5711611,31.7468354 Z M63.2681573,31.838212 C63.586382,31.838212 63.8715113,31.7830053 64.1235453,31.672592 C64.3755792,31.5621786 64.5684234,31.4060769 64.7020777,31.204287 C64.8357321,31.002497 64.9025593,30.7873813 64.9025593,30.5589399 C64.9025593,30.3254219 64.8478246,30.1299776 64.7383553,29.9726068 C64.628886,29.815236 64.4780475,29.6953043 64.2858398,29.6128115 C64.0936321,29.5303188 63.7544046,29.4243473 63.2681573,29.2948972 C62.9321121,29.2035206 62.7297212,29.1451411 62.6609846,29.1197587 C62.5413322,29.0715322 62.4535022,29.0106145 62.3974946,28.9370055 C62.3414871,28.8659349 62.3134833,28.7859804 62.3134833,28.697142 C62.3134833,28.5575389 62.3809469,28.4357035 62.5158742,28.3316357 C62.6508015,28.2275679 62.8761045,28.175534 63.1917834,28.175534 C63.4590921,28.175534 63.6659382,28.2339135 63.8123215,28.3506725 C63.9587049,28.4674314 64.0471713,28.6298787 64.0777209,28.8380142 L64.0777209,28.8380142 L64.7498114,28.7466377 C64.7065329,28.4851991 64.6276131,28.276429 64.5130523,28.1203273 C64.3984914,27.9642257 64.220922,27.8404866 63.9803442,27.74911 C63.7397663,27.6577334 63.460365,27.6120451 63.1421404,27.6120451 C62.9308392,27.6120451 62.7329034,27.6393312 62.5483331,27.6939033 C62.3637628,27.7484754 62.2180159,27.8151042 62.1110924,27.8937896 C61.9685277,27.9953191 61.8558762,28.1228656 61.7731378,28.276429 C61.6903994,28.4299924 61.6490302,28.5968816 61.6490302,28.7770965 C61.6490302,28.9750791 61.6993097,29.1559286 61.7998687,29.319645 C61.9004277,29.4833614 62.0480839,29.6115424 62.2428374,29.7041881 C62.4375909,29.7968338 62.7870016,29.9066126 63.2910695,30.0335245 C63.6653017,30.1274393 63.8995151,30.2048556 63.9937096,30.2657733 C64.1286369,30.3546117 64.1961005,30.4764471 64.1961005,30.6312797 C64.1961005,30.8038799 64.1197266,30.9542705 63.9669787,31.0824515 C63.8142309,31.2106326 63.5800175,31.2747231 63.2643386,31.2747231 C62.9512055,31.2747231 62.7074454,31.2023833 62.5330583,31.0577037 C62.3586712,30.9130241 62.2523842,30.7048886 62.2141972,30.4332971 L62.2141972,30.4332971 L61.5344693,30.5399031 C61.6108432,30.9688654 61.7871397,31.2924908 62.0633587,31.5107793 C62.3395777,31.7290678 62.7411773,31.838212 63.2681573,31.838212 Z M66.8004512,31.8001384 C66.9531991,31.8001384 67.1263133,31.7798325 67.3197939,31.7392207 L67.3197939,31.7392207 L67.2205078,31.1338509 C67.0957637,31.1516185 66.9952047,31.1605024 66.9188308,31.1605024 C66.8169989,31.1605024 66.7387157,31.1440038 66.683981,31.1110067 C66.6292464,31.0780096 66.5897865,31.0335905 66.5656014,30.9777492 C66.5414164,30.921908 66.5293238,30.7962652 66.5293238,30.6008208 L66.5293238,30.6008208 L66.5293238,28.2364517 L67.2205078,28.2364517 L67.2205078,27.7034217 L66.5293238,27.7034217 L66.5293238,26.290892 L65.8457772,26.7020866 L65.8457772,27.7034217 L65.3417093,27.7034217 L65.3417093,28.2364517 L65.8457772,28.2364517 L65.8457772,30.5627472 C65.8457772,30.9739419 65.873781,31.2436297 65.9297885,31.3718107 C65.9857961,31.4999918 66.0825364,31.603425 66.2200094,31.6821104 C66.3574825,31.7607958 66.5509631,31.8001384 66.8004512,31.8001384 Z M69.5957368,31.838212 C70.0667093,31.838212 70.4536705,31.7239913 70.7566204,31.4955498 C71.0595703,31.2671084 71.2670528,30.9460212 71.3790679,30.5322884 L71.3790679,30.5322884 L70.6687904,30.4447191 C70.5644127,30.7340783 70.423121,30.9447521 70.2449151,31.0767405 C70.0667093,31.2087289 69.8515894,31.2747231 69.5995555,31.2747231 C69.2609644,31.2747231 68.9783809,31.156695 68.751805,30.9206388 C68.525229,30.6845827 68.399212,30.3444587 68.373754,29.900267 L68.373754,29.900267 L71.3981614,29.900267 C71.4007072,29.8190434 71.4019801,29.7581257 71.4019801,29.7175138 C71.4019801,29.0499571 71.2301387,28.5321565 70.8864561,28.1641119 C70.5427734,27.7960674 70.0998047,27.6120451 69.5575498,27.6120451 C68.9974744,27.6120451 68.5417767,27.7998747 68.1904566,28.175534 C67.8391366,28.5511933 67.6634766,29.0791469 67.6634766,29.7593948 C67.6634766,30.4167985 67.8372272,30.927619 68.1847286,31.2918562 C68.5322299,31.6560934 69.002566,31.838212 69.5957368,31.838212 Z M70.6764278,29.3367781 L68.411941,29.3367781 C68.4348532,28.9839629 68.5538692,28.7022185 68.7689891,28.4915447 C68.984109,28.2808709 69.2495084,28.175534 69.5651872,28.175534 C69.9139615,28.175534 70.1978179,28.3075224 70.4167565,28.5714992 C70.5593211,28.7415612 70.6458782,28.9966541 70.6764278,29.3367781 L70.6764278,29.3367781 Z M73.9452317,31.838212 C74.4162042,31.838212 74.8031654,31.7239913 75.1061153,31.4955498 C75.4090652,31.2671084 75.6165477,30.9460212 75.7285628,30.5322884 L75.7285628,30.5322884 L75.0182853,30.4447191 C74.9139076,30.7340783 74.7726158,30.9447521 74.59441,31.0767405 C74.4162042,31.2087289 74.2010843,31.2747231 73.9490504,31.2747231 C73.6104593,31.2747231 73.3278758,31.156695 73.1012998,30.9206388 C72.8747239,30.6845827 72.7487069,30.3444587 72.7232489,29.900267 L72.7232489,29.900267 L75.7476563,29.900267 C75.750202,29.8190434 75.7514749,29.7581257 75.7514749,29.7175138 C75.7514749,29.0499571 75.5796336,28.5321565 75.235951,28.1641119 C74.8922683,27.7960674 74.4492996,27.6120451 73.9070447,27.6120451 C73.3469693,27.6120451 72.8912716,27.7998747 72.5399515,28.175534 C72.1886315,28.5511933 72.0129714,29.0791469 72.0129714,29.7593948 C72.0129714,30.4167985 72.1867221,30.927619 72.5342235,31.2918562 C72.8817248,31.6560934 73.3520609,31.838212 73.9452317,31.838212 Z M75.0259227,29.3367781 L72.7614359,29.3367781 C72.7843481,28.9839629 72.9033641,28.7022185 73.118484,28.4915447 C73.3336039,28.2808709 73.5990032,28.175534 73.9146821,28.175534 C74.2634564,28.175534 74.5473128,28.3075224 74.7662513,28.5714992 C74.908816,28.7415612 74.9953731,28.9966541 75.0259227,29.3367781 L75.0259227,29.3367781 Z M77.2636786,31.7468354 L77.2636786,26.1652492 L76.5763133,26.1652492 L76.5763133,31.7468354 L77.2636786,31.7468354 Z M81.9606748,31.838212 C82.2788995,31.838212 82.5640288,31.7830053 82.8160628,31.672592 C83.0680967,31.5621786 83.2609409,31.4060769 83.3945952,31.204287 C83.5282496,31.002497 83.5950768,30.7873813 83.5950768,30.5589399 C83.5950768,30.3254219 83.5403421,30.1299776 83.4308728,29.9726068 C83.3214036,29.815236 83.1705651,29.6953043 82.9783574,29.6128115 C82.7861496,29.5303188 82.4469221,29.4243473 81.9606748,29.2948972 C81.6246296,29.2035206 81.4222387,29.1451411 81.3535022,29.1197587 C81.2338497,29.0715322 81.1460197,29.0106145 81.0900121,28.9370055 C81.0340046,28.8659349 81.0060008,28.7859804 81.0060008,28.697142 C81.0060008,28.5575389 81.0734644,28.4357035 81.2083917,28.3316357 C81.343319,28.2275679 81.568622,28.175534 81.8843009,28.175534 C82.1516096,28.175534 82.3584557,28.2339135 82.504839,28.3506725 C82.6512224,28.4674314 82.7396888,28.6298787 82.7702384,28.8380142 L82.7702384,28.8380142 L83.4423289,28.7466377 C83.3990504,28.4851991 83.3201307,28.276429 83.2055698,28.1203273 C83.0910089,27.9642257 82.9134395,27.8404866 82.6728617,27.74911 C82.4322838,27.6577334 82.1528825,27.6120451 81.8346579,27.6120451 C81.6233567,27.6120451 81.4254209,27.6393312 81.2408506,27.6939033 C81.0562803,27.7484754 80.9105334,27.8151042 80.8036099,27.8937896 C80.6610453,27.9953191 80.5483937,28.1228656 80.4656553,28.276429 C80.3829169,28.4299924 80.3415477,28.5968816 80.3415477,28.7770965 C80.3415477,28.9750791 80.3918272,29.1559286 80.4923862,29.319645 C80.5929452,29.4833614 80.7406014,29.6115424 80.9353549,29.7041881 C81.1301084,29.7968338 81.4795191,29.9066126 81.983587,30.0335245 C82.3578192,30.1274393 82.5920326,30.2048556 82.6862271,30.2657733 C82.8211544,30.3546117 82.888618,30.4764471 82.888618,30.6312797 C82.888618,30.8038799 82.8122441,30.9542705 82.6594962,31.0824515 C82.5067484,31.2106326 82.272535,31.2747231 81.9568561,31.2747231 C81.6437231,31.2747231 81.399963,31.2023833 81.2255758,31.0577037 C81.0511887,30.9130241 80.9449017,30.7048886 80.9067147,30.4332971 L80.9067147,30.4332971 L80.2269868,30.5399031 C80.3033607,30.9688654 80.4796572,31.2924908 80.7558762,31.5107793 C81.0320952,31.7290678 81.4336948,31.838212 81.9606748,31.838212 Z M86.0581358,31.838212 C86.4120016,31.838212 86.7385001,31.7557193 87.0376313,31.5907338 C87.3367625,31.4257483 87.5646114,31.194134 87.7211779,30.895891 C87.8777445,30.597648 87.9560277,30.1883571 87.9560277,29.6680182 C87.9560277,29.0258439 87.7790948,28.5226381 87.425229,28.1584009 C87.0713631,27.7941637 86.6156654,27.6120451 86.0581358,27.6120451 C85.5566137,27.6120451 85.1314655,27.7618012 84.7826913,28.0613133 C84.3651805,28.4217431 84.1564251,28.9763482 84.1564251,29.7251286 C84.1564251,30.4079147 84.3314487,30.9307918 84.6814958,31.2937599 C85.031543,31.656728 85.490423,31.838212 86.0581358,31.838212 Z M86.0581358,31.2747231 C85.7144531,31.2747231 85.4293238,31.1459075 85.2027478,30.8882763 C84.9761719,30.6306451 84.8628839,30.2429292 84.8628839,29.7251286 C84.8628839,29.2073279 84.9761719,28.8202466 85.2027478,28.5638845 C85.4293238,28.3075224 85.7144531,28.1793414 86.0581358,28.1793414 C86.3967268,28.1793414 86.6799468,28.308157 86.9077957,28.5657882 C87.1356445,28.8234194 87.249569,29.2022515 87.249569,29.7022844 C87.249569,30.2327762 87.136281,30.6274723 86.909705,30.8863726 C86.683129,31.1452729 86.3992726,31.2747231 86.0581358,31.2747231 Z M89.4338631,31.7468354 L89.4338631,26.1652492 L88.7464978,26.1652492 L88.7464978,31.7468354 L89.4338631,31.7468354 Z M91.8701913,31.838212 C92.4124461,31.838212 92.841413,31.6097706 93.1570919,31.1528877 L93.1570919,31.1528877 L93.1570919,31.7468354 L93.7719019,31.7468354 L93.7719019,27.7034217 L93.0845366,27.7034217 L93.0845366,29.8698081 C93.0845366,30.2150086 93.0469861,30.4783508 92.9718851,30.6598348 C92.8967841,30.8413189 92.7688578,30.9847294 92.5881061,31.0900663 C92.4073545,31.1954032 92.2138739,31.2480716 92.0076643,31.2480716 C91.8014547,31.2480716 91.6283405,31.1966723 91.4883217,31.0938736 C91.3483028,30.991075 91.2566541,30.8495682 91.2133755,30.6693532 C91.1853718,30.5449796 91.1713699,30.3038469 91.1713699,29.9459553 L91.1713699,27.7034217 L90.4840046,27.7034217 L90.4840046,30.208663 C90.4840046,30.5005604 90.4980065,30.7137724 90.5260102,30.8482991 C90.566743,31.0488199 90.6373889,31.2182473 90.7379479,31.3565813 C90.8385069,31.4949153 90.9925276,31.6097706 91.2000101,31.7011472 C91.4074926,31.7925237 91.6308863,31.838212 91.8701913,31.838212 Z M95.9294652,31.8001384 C96.0822131,31.8001384 96.2553273,31.7798325 96.4488079,31.7392207 L96.4488079,31.7392207 L96.3495218,31.1338509 C96.2247777,31.1516185 96.1242188,31.1605024 96.0478448,31.1605024 C95.9460129,31.1605024 95.8677297,31.1440038 95.812995,31.1110067 C95.7582604,31.0780096 95.7188005,31.0335905 95.6946154,30.9777492 C95.6704304,30.921908 95.6583378,30.7962652 95.6583378,30.6008208 L95.6583378,30.6008208 L95.6583378,28.2364517 L96.3495218,28.2364517 L96.3495218,27.7034217 L95.6583378,27.7034217 L95.6583378,26.290892 L94.9747912,26.7020866 L94.9747912,27.7034217 L94.4707233,27.7034217 L94.4707233,28.2364517 L94.9747912,28.2364517 L94.9747912,30.5627472 C94.9747912,30.9739419 95.002795,31.2436297 95.0588025,31.3718107 C95.1148101,31.4999918 95.2115504,31.603425 95.3490234,31.6821104 C95.4864965,31.7607958 95.6799771,31.8001384 95.9294652,31.8001384 Z M97.7127963,26.9533722 L97.7127963,26.1652492 L97.025431,26.1652492 L97.025431,26.9533722 L97.7127963,26.9533722 Z M97.7127963,31.7468354 L97.7127963,27.7034217 L97.025431,27.7034217 L97.025431,31.7468354 L97.7127963,31.7468354 Z M100.404977,31.838212 C100.758843,31.838212 101.085341,31.7557193 101.384473,31.5907338 C101.683604,31.4257483 101.911453,31.194134 102.068019,30.895891 C102.224586,30.597648 102.302869,30.1883571 102.302869,29.6680182 C102.302869,29.0258439 102.125936,28.5226381 101.77207,28.1584009 C101.418204,27.7941637 100.962507,27.6120451 100.404977,27.6120451 C99.903455,27.6120451 99.4783068,27.7618012 99.1295326,28.0613133 C98.7120218,28.4217431 98.5032664,28.9763482 98.5032664,29.7251286 C98.5032664,30.4079147 98.67829,30.9307918 99.0283371,31.2937599 C99.3783843,31.656728 99.8372643,31.838212 100.404977,31.838212 Z M100.404977,31.2747231 C100.061294,31.2747231 99.7761651,31.1459075 99.5495892,30.8882763 C99.3230132,30.6306451 99.2097252,30.2429292 99.2097252,29.7251286 C99.2097252,29.2073279 99.3230132,28.8202466 99.5495892,28.5638845 C99.7761651,28.3075224 100.061294,28.1793414 100.404977,28.1793414 C100.743568,28.1793414 101.026788,28.308157 101.254637,28.5657882 C101.482486,28.8234194 101.59641,29.2022515 101.59641,29.7022844 C101.59641,30.2327762 101.483122,30.6274723 101.256546,30.8863726 C101.02997,31.1452729 100.746114,31.2747231 100.404977,31.2747231 Z M103.795979,31.7468354 L103.795979,29.538568 C103.795979,29.0207674 103.902266,28.6692214 104.11484,28.48393 C104.327414,28.2986386 104.580085,28.2059929 104.872852,28.2059929 C105.056149,28.2059929 105.215898,28.2472393 105.352098,28.329732 C105.488298,28.4122247 105.583129,28.5226381 105.636591,28.6609721 C105.690053,28.7993061 105.716783,29.0080762 105.716783,29.2872824 L105.716783,29.2872824 L105.716783,31.7468354 L106.404149,31.7468354 L106.404149,29.2606309 C106.404149,28.9433511 106.39142,28.7212553 106.365962,28.5943434 C106.325229,28.398899 106.253947,28.2301061 106.152115,28.0879648 C106.050283,27.9458234 105.896899,27.8309682 105.691962,27.7433989 C105.487025,27.6558297 105.262359,27.6120451 105.017962,27.6120451 C104.455341,27.6120451 104.025101,27.834141 103.727243,28.2783327 L103.727243,28.2783327 L103.727243,27.7034217 L103.108614,27.7034217 L103.108614,31.7468354 L103.795979,31.7468354 Z M108.916851,31.838212 C109.235075,31.838212 109.520205,31.7830053 109.772239,31.672592 C110.024273,31.5621786 110.217117,31.4060769 110.350771,31.204287 C110.484426,31.002497 110.551253,30.7873813 110.551253,30.5589399 C110.551253,30.3254219 110.496518,30.1299776 110.387049,29.9726068 C110.277579,29.815236 110.126741,29.6953043 109.934533,29.6128115 C109.742326,29.5303188 109.403098,29.4243473 108.916851,29.2948972 C108.580805,29.2035206 108.378415,29.1451411 108.309678,29.1197587 C108.190026,29.0715322 108.102196,29.0106145 108.046188,28.9370055 C107.99018,28.8659349 107.962177,28.7859804 107.962177,28.697142 C107.962177,28.5575389 108.02964,28.4357035 108.164568,28.3316357 C108.299495,28.2275679 108.524798,28.175534 108.840477,28.175534 C109.107786,28.175534 109.314632,28.2339135 109.461015,28.3506725 C109.607398,28.4674314 109.695865,28.6298787 109.726414,28.8380142 L109.726414,28.8380142 L110.398505,28.7466377 C110.355226,28.4851991 110.276307,28.276429 110.161746,28.1203273 C110.047185,27.9642257 109.869615,27.8404866 109.629038,27.74911 C109.38846,27.6577334 109.109058,27.6120451 108.790834,27.6120451 C108.579533,27.6120451 108.381597,27.6393312 108.197027,27.6939033 C108.012456,27.7484754 107.866709,27.8151042 107.759786,27.8937896 C107.617221,27.9953191 107.50457,28.1228656 107.421831,28.276429 C107.339093,28.4299924 107.297724,28.5968816 107.297724,28.7770965 C107.297724,28.9750791 107.348003,29.1559286 107.448562,29.319645 C107.549121,29.4833614 107.696777,29.6115424 107.891531,29.7041881 C108.086284,29.7968338 108.435695,29.9066126 108.939763,30.0335245 C109.313995,30.1274393 109.548209,30.2048556 109.642403,30.2657733 C109.77733,30.3546117 109.844794,30.4764471 109.844794,30.6312797 C109.844794,30.8038799 109.76842,30.9542705 109.615672,31.0824515 C109.462924,31.2106326 109.228711,31.2747231 108.913032,31.2747231 C108.599899,31.2747231 108.356139,31.2023833 108.181752,31.0577037 C108.007365,30.9130241 107.901078,30.7048886 107.862891,30.4332971 L107.862891,30.4332971 L107.183163,30.5399031 C107.259537,30.9688654 107.435833,31.2924908 107.712052,31.5107793 C107.988271,31.7290678 108.389871,31.838212 108.916851,31.838212 Z" id="Providingspecialsteelsolutions" fill="#858585"></path>
                    <path d="M3.25947057,18.5021262 C3.9525964,18.5021262 4.51249169,18.3691406 4.93915641,18.1031695 C5.36582114,17.8371984 5.66089004,17.4920886 5.82436311,17.0678402 C5.98783619,16.6435918 6.06957273,16.0708564 6.06957273,15.3496341 L6.06957273,15.3496341 L6.06957273,11.2034217 L5.11815943,11.2034217 L5.11815943,15.3447389 C5.11815943,16.2454509 4.96939893,16.8540843 4.67187793,17.1706388 C4.37435694,17.4871934 3.87576406,17.6454707 3.1760993,17.6454707 C2.76741661,17.6454707 2.42167106,17.5655162 2.13886264,17.4056072 C1.85605422,17.2456982 1.65661707,17.0180726 1.54055118,16.7227304 C1.4244853,16.4273883 1.36645236,15.9680578 1.36645236,15.3447389 L1.36645236,15.3447389 L1.36645236,11.2034217 L0.415039062,11.2034217 L0.415039062,15.3496341 C0.415039062,16.1100178 0.506583984,16.7096766 0.689673828,17.1486106 C0.872763672,17.5875445 1.17845832,17.9228639 1.60675778,18.1545688 C2.03505724,18.3862737 2.5859615,18.5021262 3.25947057,18.5021262 Z M11.0865614,18.5021262 C11.6096752,18.5021262 12.1197112,18.408302 12.6166694,18.2206537 C13.1136275,18.0330053 13.5958731,17.7531646 14.0634061,17.3811313 L14.0634061,17.3811313 L14.0634061,14.7181566 L11.0179027,14.7230518 L11.0179027,15.5650218 L13.1316096,15.5650218 L13.1316096,16.9014043 C12.928903,17.080894 12.631382,17.2497775 12.2390466,17.4080548 C11.8467112,17.5663321 11.4445674,17.6454707 11.0326153,17.6454707 C10.5585434,17.6454707 10.1106271,17.5410403 9.6888666,17.3321796 C9.26710607,17.1233188 8.94588148,16.8035008 8.72519283,16.3727255 C8.50450418,15.9419502 8.39415985,15.4067445 8.39415985,14.7671084 C8.39415985,14.2482199 8.48570477,13.7668612 8.66879462,13.323032 C8.77668685,13.0652195 8.92789944,12.8286195 9.1224324,12.6132318 C9.31696536,12.3978441 9.57280072,12.2240655 9.88993849,12.0918958 C10.2070763,11.9597261 10.5830643,11.8936412 11.0179027,11.8936412 C11.3808129,11.8936412 11.7110285,11.9564626 12.0085495,12.0821054 C12.3060705,12.2077482 12.5349328,12.375 12.6951365,12.5838608 C12.8553401,12.7927215 12.989388,13.0799051 13.0972802,13.4454114 L13.0972802,13.4454114 L13.9555139,13.210443 C13.8312743,12.7274525 13.6498192,12.3358386 13.4111485,12.0356013 C13.1724778,11.7353639 12.8430796,11.5012114 12.4229538,11.3331438 C12.002828,11.1650761 11.5328429,11.0810423 11.0129985,11.0810423 C10.2969864,11.0810423 9.66434564,11.2278975 9.11507611,11.521608 C8.56580658,11.8153184 8.14486341,12.2648586 7.85224661,12.8702284 C7.5596298,13.4755983 7.4133214,14.1274723 7.4133214,14.8258505 C7.4133214,15.5307555 7.56044717,16.1687599 7.8546987,16.7398635 C8.14895024,17.3109672 8.58460598,17.7474535 9.16166594,18.0493226 C9.73872589,18.3511917 10.3803577,18.5021262 11.0865614,18.5021262 Z M16.5792567,18.3797468 L16.5792567,11.2034217 L15.6278434,11.2034217 L15.6278434,18.3797468 L16.5792567,18.3797468 Z M21.0371675,18.3797468 L21.0371675,12.0502868 L23.4157007,12.0502868 L23.4157007,11.2034217 L17.7170293,11.2034217 L17.7170293,12.0502868 L20.0857542,12.0502868 L20.0857542,18.3797468 L21.0371675,18.3797468 Z M29.7764381,18.3797468 L29.7764381,17.5328817 L25.362665,17.5328817 L25.362665,15.0901899 L29.3399649,15.0901899 L29.3399649,14.2482199 L25.362665,14.2482199 L25.362665,12.0502868 L29.6096955,12.0502868 L29.6096955,11.2034217 L24.4112517,11.2034217 L24.4112517,18.3797468 L29.7764381,18.3797468 Z M34.1951153,18.5021262 C34.943822,18.5021262 35.5772801,18.2973447 36.0954898,17.8877818 C36.6136994,17.4782189 36.9725228,16.8834553 37.17196,16.1034909 L37.17196,16.1034909 L36.2205467,15.8636274 C36.0897682,16.4673655 35.8396544,16.9226167 35.4702053,17.2293809 C35.1007561,17.5361452 34.6495704,17.6895273 34.1166482,17.6895273 C33.6785404,17.6895273 33.2714924,17.5769383 32.8955043,17.3517603 C32.5195163,17.1265823 32.2424294,16.7863677 32.0642437,16.3311165 C31.8860581,15.8758653 31.7969653,15.3431072 31.7969653,14.7328422 C31.7969653,14.259642 31.8721629,13.8003115 32.0225581,13.3548507 C32.1729533,12.9093898 32.4336929,12.5544897 32.8047768,12.2901503 C33.1758606,12.0258109 33.6376721,11.8936412 34.1902111,11.8936412 C34.6708219,11.8936412 35.0696962,12.0127571 35.386834,12.2509889 C35.7039718,12.4892207 35.9459119,12.8694126 36.1126544,13.3915645 L36.1126544,13.3915645 L37.0493552,13.1712816 C36.8564569,12.5088014 36.5147982,11.9948081 36.024379,11.6293018 C35.5339598,11.2637955 34.9291094,11.0810423 34.2098278,11.0810423 C33.5755523,11.0810423 32.9944055,11.22545 32.4663875,11.5142652 C31.9383695,11.8030805 31.5313215,12.2256972 31.2452436,12.7821153 C30.9591658,13.3385334 30.8161268,13.9904074 30.8161268,14.7377373 C30.8161268,15.4230617 30.9428184,16.0643295 31.1962017,16.6615407 C31.449585,17.258752 31.8190341,17.714819 32.3045492,18.0297419 C32.7900642,18.3446648 33.4202529,18.5021262 34.1951153,18.5021262 Z M39.3249004,18.3797468 L39.3249004,14.9971816 L43.0618949,14.9971816 L43.0618949,18.3797468 L44.0133082,18.3797468 L44.0133082,11.2034217 L43.0618949,11.2034217 L43.0618949,14.1503165 L39.3249004,14.1503165 L39.3249004,11.2034217 L38.3734871,11.2034217 L38.3734871,18.3797468 L39.3249004,18.3797468 Z" id="UGITECH" fill="#FFFFFF"></path>
                </g>
            </g>
        </g>
    </g>
</svg>