<?xml version="1.0" encoding="UTF-8"?>
<svg width="67px" height="79px" viewBox="0 0 67 79" version="1.1" xmlns="http://www.w3.org/2000/svg" xmlns:xlink="http://www.w3.org/1999/xlink">
    <!-- Generator: Sketch 63.1 (92452) - https://sketch.com -->
    <title>Logo/Small/Original</title>
    <desc>Created with Sketch.</desc>
    <defs>
        <linearGradient x1="10.0036571%" y1="41.8416186%" x2="89.9957053%" y2="58.1558725%" id="linearGradient-1">
            <stop stop-color="#0E5389" offset="0%"></stop>
            <stop stop-color="#486EA1" offset="6.43%"></stop>
            <stop stop-color="#C5CEE3" offset="21.12%"></stop>
            <stop stop-color="#FFFFFF" offset="26.97%"></stop>
            <stop stop-color="#F8F9FD" offset="29.12%"></stop>
            <stop stop-color="#E4E8F6" offset="32.63%"></stop>
            <stop stop-color="#C3CEEA" offset="37.06%"></stop>
            <stop stop-color="#94ACD9" offset="42.19%"></stop>
            <stop stop-color="#7E9CD1" offset="44.38%"></stop>
            <stop stop-color="#6384B6" offset="65.04%"></stop>
            <stop stop-color="#597BAC" offset="76.4%"></stop>
            <stop stop-color="#4A71A6" offset="83.56%"></stop>
            <stop stop-color="#1D5D99" offset="98.08%"></stop>
            <stop stop-color="#105A97" offset="100%"></stop>
        </linearGradient>
    </defs>
    <g id="Logo/Small/Original" stroke="none" stroke-width="1" fill="none" fill-rule="evenodd">
        <g id="Logo/Full/Ugitech" fill-rule="nonzero">
            <g id="Logo_Schmolz_+_Bickenbach">
                <g id="g4444" transform="translate(0.000000, 0.979014)">
                    <path d="M33.337259,0.0209857571 L0.022109195,19.2709909 L0.022109195,57.7709862 L33.337259,77.0209858 L66.6534573,57.7709862 L66.6534573,19.2709909 L33.337259,0.0209857571 Z M28.8693076,63.8244517 L28.8176373,63.7949146 L11.0164585,53.5075035 L11.067059,53.4790262 L28.8693076,43.1937231 L28.8693076,63.8244517 L28.8693076,63.8244517 Z M28.8671681,33.8324245 L28.8154978,33.8028766 L11.0164371,23.5133576 L11.0670376,23.4838097 L28.8692648,13.1942907 L28.8671253,33.8324245 L28.8671681,33.8324245 Z M37.7999043,13.1932629 L37.8537142,13.2238814 L55.659108,23.5123512 L55.6063679,23.5418991 L37.7999043,33.834587 L37.7999043,13.1932629 L37.7999043,13.1932629 Z M55.6095131,53.5391507 L37.7999043,63.8244517 L37.7999043,43.1937231 L37.8537142,43.2232709 L55.6622638,53.5075174 L55.6095238,53.5391636 L55.6095131,53.5391507 Z" id="path83" fill="#115E9D"></path>
                    <g id="g85" transform="translate(2.340933, 2.657972)" fill="url(#linearGradient-1)">
                        <path d="M0.0579705507,17.9705344 L0.0579705507,53.722795 L30.9973804,71.6015623 L61.9325743,53.722795 L61.9325743,17.9705344 L30.9973804,0.087547946 L0.0579705507,17.9705344 Z M26.528378,61.16648 L26.4767315,61.1369458 L8.67555641,50.8495347 L8.72614889,50.8210553 L26.528378,40.5357538 L26.528378,61.16648 L26.528378,61.16648 Z M26.52627,31.1744523 L26.4746235,31.1449181 L8.67555641,20.8553974 L8.72614889,20.8258632 L26.528378,10.5363426 L26.52627,31.1744523 Z M35.4590048,10.5352878 L35.5127593,10.5658768 L53.3181505,20.8543427 L53.26545,20.8838769 L35.4590048,31.1765619 L35.4590048,10.5352878 Z M35.4590048,40.5357538 L35.5127593,40.565288 L53.3213125,50.8495347 L53.268612,50.8811785 L35.4590048,61.16648 L35.4590048,40.5357538 Z" id="path116"></path>
                    </g>
                    <polygon id="polygon118" fill="#BAC6E2" points="30.5978872 36.9293012 30.5957792 10.0974379 28.8345284 13.2533832 28.8334744 33.773356"></polygon>
                    <polygon id="polygon120" fill="#DCE2F1" points="7.38331666 23.5123148 30.5978872 36.9293012 28.8334744 33.773356 11.0860538 23.5123148"></polygon>
                    <polygon id="polygon122" fill="#033A5F" points="11.0860538 23.5123148 28.8345284 13.2533832 30.5957792 10.0974379 7.38331666 23.5123148"></polygon>
                    <polygon id="polygon124" fill="#033A5F" points="36.0745232 36.9293012 36.0745232 10.0974379 37.8357739 13.2533832 37.8357739 33.7744108"></polygon>
                    <polygon id="polygon126" fill="#0E5389" points="59.2901477 23.5123148 36.0745232 10.0974379 37.8357739 13.2533832 55.5884646 23.5123148"></polygon>
                    <polygon id="polygon128" fill="#DCE2F1" points="36.0745232 36.9293012 59.2901477 23.5123148 55.5884646 23.5123148 37.8357739 33.7744108"></polygon>
                    <polygon id="polygon130" fill="#033A5F" points="7.38331666 53.5075068 30.5957792 40.0957944 28.8345284 43.2538492 11.0860538 53.5075068"></polygon>
                    <polygon id="polygon132" fill="#BAC6E2" points="30.5957792 66.9244932 30.5957792 40.0957944 28.8345284 43.2538492 28.8345284 63.7643288"></polygon>
                    <polygon id="polygon134" fill="#DCE2F1" points="11.0860538 53.5075068 7.38331666 53.5075068 30.5957792 66.9244932 28.8345284 63.7643288"></polygon>
                    <polygon id="polygon136" fill="#033A5F" points="36.0745232 66.9244932 36.0745232 40.0957944 37.8357739 43.2538492 37.8357739 63.7643288"></polygon>
                    <polygon id="polygon138" fill="#0E5389" points="59.2901477 53.5075068 36.0745232 40.0957944 37.8357739 43.2538492 55.5916266 53.5075068"></polygon>
                    <polygon id="polygon140" fill="#DCE2F1" points="55.5916266 53.5075068 37.8357739 63.7643288 36.0745232 66.9244932 59.2901477 53.5075068"></polygon>
                    <polygon id="polygon142" fill="#DCE2F1" points="0.643976638 19.6127394 33.3383132 0.724533741 33.3383132 2.74552006 2.39890331 20.6285065"></polygon>
                    <polygon id="polygon144" fill="#0E5389" points="66.0347578 19.6127394 33.3383132 0.724533741 33.3383132 2.74552006 64.2735071 20.6285065"></polygon>
                    <polygon id="polygon146" fill="#094775" points="64.2735071 56.3807671 64.2735071 20.6285065 66.0347578 19.6127394 66.0347578 57.3891507"></polygon>
                    <polygon id="polygon148" fill="#033A5F" points="64.2735071 56.3807671 66.0347578 57.3891507 33.3383132 76.2794659 33.3383132 74.2595344"></polygon>
                    <polygon id="polygon150" fill="#7693C3" points="2.39890331 56.3807671 33.3383132 74.2595344 33.3383132 76.2794659 0.643976638 57.3891507"></polygon>
                    <polygon id="polygon152" fill="#BAC6E2" points="2.39890331 20.6285065 2.39890331 56.3807671 0.643976638 57.3891507 0.643976638 19.6127394"></polygon>
                    <path d="M33.337259,0.0209857571 L0.022109195,19.2709909 L0.022109195,57.7709862 L33.337259,77.0209858 L66.6534573,57.7709862 L66.6534573,19.2709909 L33.337259,0.0209857571 Z M66.0347615,57.3891507 L33.3383181,76.2794663 L0.642923069,57.3891507 L0.642923069,19.6127398 L33.3383181,0.724535386 L66.0347615,19.6127398 L66.0347615,57.3891507 L66.0347615,57.3891507 Z" id="path154" fill="#000000"></path>
                </g>
            </g>
        </g>
    </g>
</svg>