<?xml version="1.0" encoding="UTF-8"?>
<svg width="290px" height="79px" viewBox="0 0 290 79" version="1.1" xmlns="http://www.w3.org/2000/svg" xmlns:xlink="http://www.w3.org/1999/xlink">
    <!-- Generator: Sketch 63.1 (92452) - https://sketch.com -->
    <title>Logo/Full/Ugitech+byline</title>
    <desc>Created with Sketch.</desc>
    <defs>
        <linearGradient x1="10.0036571%" y1="41.8416186%" x2="89.9957053%" y2="58.1558725%" id="linearGradient-1">
            <stop stop-color="#0E5389" offset="0%"></stop>
            <stop stop-color="#486EA1" offset="6.43%"></stop>
            <stop stop-color="#C5CEE3" offset="21.12%"></stop>
            <stop stop-color="#FFFFFF" offset="26.97%"></stop>
            <stop stop-color="#F8F9FD" offset="29.12%"></stop>
            <stop stop-color="#E4E8F6" offset="32.63%"></stop>
            <stop stop-color="#C3CEEA" offset="37.06%"></stop>
            <stop stop-color="#94ACD9" offset="42.19%"></stop>
            <stop stop-color="#7E9CD1" offset="44.38%"></stop>
            <stop stop-color="#6384B6" offset="65.04%"></stop>
            <stop stop-color="#597BAC" offset="76.4%"></stop>
            <stop stop-color="#4A71A6" offset="83.56%"></stop>
            <stop stop-color="#1D5D99" offset="98.08%"></stop>
            <stop stop-color="#105A97" offset="100%"></stop>
        </linearGradient>
    </defs>
    <g id="Logo/Full/Ugitech+byline" stroke="none" stroke-width="1" fill="none" fill-rule="evenodd">
        <g id="Logo/Full/Ugitech" fill-rule="nonzero">
            <g id="Logo_Schmolz_+_Bickenbach">
                <g id="g4444" transform="translate(223.000000, 0.979014)">
                    <path d="M33.337259,0.0209857571 L0.022109195,19.2709909 L0.022109195,57.7709862 L33.337259,77.0209858 L66.6534573,57.7709862 L66.6534573,19.2709909 L33.337259,0.0209857571 Z M28.8693076,63.8244517 L28.8176373,63.7949146 L11.0164585,53.5075035 L11.067059,53.4790262 L28.8693076,43.1937231 L28.8693076,63.8244517 L28.8693076,63.8244517 Z M28.8671681,33.8324245 L28.8154978,33.8028766 L11.0164371,23.5133576 L11.0670376,23.4838097 L28.8692648,13.1942907 L28.8671253,33.8324245 L28.8671681,33.8324245 Z M37.7999043,13.1932629 L37.8537142,13.2238814 L55.659108,23.5123512 L55.6063679,23.5418991 L37.7999043,33.834587 L37.7999043,13.1932629 L37.7999043,13.1932629 Z M55.6095131,53.5391507 L37.7999043,63.8244517 L37.7999043,43.1937231 L37.8537142,43.2232709 L55.6622638,53.5075174 L55.6095238,53.5391636 L55.6095131,53.5391507 Z" id="path83" fill="#115E9D"></path>
                    <g id="g85" transform="translate(2.340933, 2.657972)" fill="url(#linearGradient-1)">
                        <path d="M0.0579705507,17.9705344 L0.0579705507,53.722795 L30.9973804,71.6015623 L61.9325743,53.722795 L61.9325743,17.9705344 L30.9973804,0.087547946 L0.0579705507,17.9705344 Z M26.528378,61.16648 L26.4767315,61.1369458 L8.67555641,50.8495347 L8.72614889,50.8210553 L26.528378,40.5357538 L26.528378,61.16648 L26.528378,61.16648 Z M26.52627,31.1744523 L26.4746235,31.1449181 L8.67555641,20.8553974 L8.72614889,20.8258632 L26.528378,10.5363426 L26.52627,31.1744523 Z M35.4590048,10.5352878 L35.5127593,10.5658768 L53.3181505,20.8543427 L53.26545,20.8838769 L35.4590048,31.1765619 L35.4590048,10.5352878 Z M35.4590048,40.5357538 L35.5127593,40.565288 L53.3213125,50.8495347 L53.268612,50.8811785 L35.4590048,61.16648 L35.4590048,40.5357538 Z" id="path116"></path>
                    </g>
                    <polygon id="polygon118" fill="#BAC6E2" points="30.5978872 36.9293012 30.5957792 10.0974379 28.8345284 13.2533832 28.8334744 33.773356"></polygon>
                    <polygon id="polygon120" fill="#DCE2F1" points="7.38331666 23.5123148 30.5978872 36.9293012 28.8334744 33.773356 11.0860538 23.5123148"></polygon>
                    <polygon id="polygon122" fill="#033A5F" points="11.0860538 23.5123148 28.8345284 13.2533832 30.5957792 10.0974379 7.38331666 23.5123148"></polygon>
                    <polygon id="polygon124" fill="#033A5F" points="36.0745232 36.9293012 36.0745232 10.0974379 37.8357739 13.2533832 37.8357739 33.7744108"></polygon>
                    <polygon id="polygon126" fill="#0E5389" points="59.2901477 23.5123148 36.0745232 10.0974379 37.8357739 13.2533832 55.5884646 23.5123148"></polygon>
                    <polygon id="polygon128" fill="#DCE2F1" points="36.0745232 36.9293012 59.2901477 23.5123148 55.5884646 23.5123148 37.8357739 33.7744108"></polygon>
                    <polygon id="polygon130" fill="#033A5F" points="7.38331666 53.5075068 30.5957792 40.0957944 28.8345284 43.2538492 11.0860538 53.5075068"></polygon>
                    <polygon id="polygon132" fill="#BAC6E2" points="30.5957792 66.9244932 30.5957792 40.0957944 28.8345284 43.2538492 28.8345284 63.7643288"></polygon>
                    <polygon id="polygon134" fill="#DCE2F1" points="11.0860538 53.5075068 7.38331666 53.5075068 30.5957792 66.9244932 28.8345284 63.7643288"></polygon>
                    <polygon id="polygon136" fill="#033A5F" points="36.0745232 66.9244932 36.0745232 40.0957944 37.8357739 43.2538492 37.8357739 63.7643288"></polygon>
                    <polygon id="polygon138" fill="#0E5389" points="59.2901477 53.5075068 36.0745232 40.0957944 37.8357739 43.2538492 55.5916266 53.5075068"></polygon>
                    <polygon id="polygon140" fill="#DCE2F1" points="55.5916266 53.5075068 37.8357739 63.7643288 36.0745232 66.9244932 59.2901477 53.5075068"></polygon>
                    <polygon id="polygon142" fill="#DCE2F1" points="0.643976638 19.6127394 33.3383132 0.724533741 33.3383132 2.74552006 2.39890331 20.6285065"></polygon>
                    <polygon id="polygon144" fill="#0E5389" points="66.0347578 19.6127394 33.3383132 0.724533741 33.3383132 2.74552006 64.2735071 20.6285065"></polygon>
                    <polygon id="polygon146" fill="#094775" points="64.2735071 56.3807671 64.2735071 20.6285065 66.0347578 19.6127394 66.0347578 57.3891507"></polygon>
                    <polygon id="polygon148" fill="#033A5F" points="64.2735071 56.3807671 66.0347578 57.3891507 33.3383132 76.2794659 33.3383132 74.2595344"></polygon>
                    <polygon id="polygon150" fill="#7693C3" points="2.39890331 56.3807671 33.3383132 74.2595344 33.3383132 76.2794659 0.643976638 57.3891507"></polygon>
                    <polygon id="polygon152" fill="#BAC6E2" points="2.39890331 20.6285065 2.39890331 56.3807671 0.643976638 57.3891507 0.643976638 19.6127394"></polygon>
                    <path d="M33.337259,0.0209857571 L0.022109195,19.2709909 L0.022109195,57.7709862 L33.337259,77.0209858 L66.6534573,57.7709862 L66.6534573,19.2709909 L33.337259,0.0209857571 Z M66.0347615,57.3891507 L33.3383181,76.2794663 L0.642923069,57.3891507 L0.642923069,19.6127398 L33.3383181,0.724535386 L66.0347615,19.6127398 L66.0347615,57.3891507 L66.0347615,57.3891507 Z" id="path154" fill="#000000"></path>
                </g>
                <path d="M2.40625,57 L2.40625,52.9257812 L4.9765625,52.9257812 C6.39388021,52.9257812 7.37369792,52.6306966 7.91601562,52.0405273 C8.45833333,51.4503581 8.72949219,50.7291667 8.72949219,49.8769531 C8.72949219,49.3802083 8.62809245,48.9244792 8.42529297,48.5097656 C8.22249349,48.0950521 7.9547526,47.7726237 7.62207031,47.5424805 C7.28938802,47.3123372 6.87695312,47.15625 6.38476562,47.0742188 C6.03385417,47.0104167 5.52571615,46.9785156 4.86035156,46.9785156 L4.86035156,46.9785156 L1.08007812,46.9785156 L1.08007812,57 L2.40625,57 Z M4.99707031,51.7431641 L2.40625,51.7431641 L2.40625,48.1611328 L4.96972656,48.1611328 C5.57128906,48.1611328 5.98372396,48.1907552 6.20703125,48.25 C6.55338542,48.3457031 6.83251953,48.542806 7.04443359,48.8413086 C7.25634766,49.1398112 7.36230469,49.4986979 7.36230469,49.9179688 C7.36230469,50.4967448 7.18229167,50.945638 6.82226562,51.2646484 C6.46223958,51.5836589 5.85384115,51.7431641 4.99707031,51.7431641 L4.99707031,51.7431641 Z M11.4775391,57 L11.4775391,53.1992188 C11.4775391,52.6796875 11.5458984,52.2011719 11.6826172,51.7636719 C11.773763,51.4765625 11.9264323,51.2521159 12.140625,51.090332 C12.3548177,50.9285482 12.5963542,50.8476562 12.8652344,50.8476562 C13.1660156,50.8476562 13.4667969,50.9365234 13.7675781,51.1142578 L13.7675781,51.1142578 L14.1914062,49.9726562 C13.7630208,49.7083333 13.3414714,49.5761719 12.9267578,49.5761719 C12.6396484,49.5761719 12.3764648,49.6582031 12.137207,49.8222656 C11.8979492,49.9863281 11.6370443,50.3258464 11.3544922,50.8408203 L11.3544922,50.8408203 L11.3544922,49.7402344 L10.2470703,49.7402344 L10.2470703,57 L11.4775391,57 Z M17.8691406,57.1640625 C18.5026042,57.1640625 19.0870768,57.0159505 19.6225586,56.7197266 C20.1580404,56.4235026 20.565918,56.0076497 20.8461914,55.472168 C21.1264648,54.9366862 21.2666016,54.2018229 21.2666016,53.2675781 C21.2666016,52.1145833 20.9498698,51.2111003 20.3164062,50.5571289 C19.6829427,49.9031576 18.8671875,49.5761719 17.8691406,49.5761719 C16.9713542,49.5761719 16.2102865,49.8450521 15.5859375,50.3828125 C14.8385417,51.0299479 14.4648438,52.0257161 14.4648438,53.3701172 C14.4648438,54.5960286 14.7781576,55.5348307 15.4047852,56.1865234 C16.0314128,56.8382161 16.8528646,57.1640625 17.8691406,57.1640625 Z M17.8691406,56.1523438 C17.2539062,56.1523438 16.7434896,55.9210612 16.3378906,55.4584961 C15.9322917,54.995931 15.7294922,54.2998047 15.7294922,53.3701172 C15.7294922,52.4404297 15.9322917,51.7454427 16.3378906,51.2851562 C16.7434896,50.8248698 17.2539062,50.5947266 17.8691406,50.5947266 C18.4752604,50.5947266 18.9822591,50.8260091 19.3901367,51.2885742 C19.7980143,51.7511393 20.0019531,52.4313151 20.0019531,53.3291016 C20.0019531,54.2815755 19.7991536,54.9902344 19.3935547,55.4550781 C18.9879557,55.9199219 18.4798177,56.1523438 17.8691406,56.1523438 Z M25.8740234,57 L28.6220703,49.7402344 L27.3574219,49.7402344 L25.7441406,54.1699219 C25.5481771,54.7076823 25.3955078,55.1679688 25.2861328,55.5507812 C25.1448568,55.0449219 24.9899089,54.5572917 24.8212891,54.0878906 L24.8212891,54.0878906 L23.2626953,49.7402344 L21.9638672,49.7402344 L24.7255859,57 L25.8740234,57 Z M30.9462891,48.3935547 L30.9462891,46.9785156 L29.7158203,46.9785156 L29.7158203,48.3935547 L30.9462891,48.3935547 Z M30.9462891,57 L30.9462891,49.7402344 L29.7158203,49.7402344 L29.7158203,57 L30.9462891,57 Z M35.4990234,57.1640625 C36.3922526,57.1640625 37.0690104,56.8040365 37.5292969,56.0839844 L37.5292969,56.0839844 L37.5292969,57 L38.6708984,57 L38.6708984,46.9785156 L37.4472656,46.9785156 L37.4472656,50.5742188 C37.2330729,50.2779948 36.9550781,50.0375977 36.6132812,49.8530273 C36.2714844,49.668457 35.8818359,49.5761719 35.4443359,49.5761719 C34.8473307,49.5761719 34.3072917,49.7333984 33.8242188,50.0478516 C33.3411458,50.3623047 32.9788411,50.8146159 32.7373047,51.4047852 C32.4957682,51.9949544 32.375,52.6523438 32.375,53.3769531 C32.375,54.1197917 32.5083008,54.777181 32.7749023,55.3491211 C33.0415039,55.9210612 33.4174805,56.3665365 33.902832,56.6855469 C34.3881836,57.0045573 34.9202474,57.1640625 35.4990234,57.1640625 Z M35.6152344,56.1523438 C35.0820312,56.1523438 34.6194661,55.9222005 34.2275391,55.4619141 C33.835612,55.0016276 33.6396484,54.3066406 33.6396484,53.3769531 C33.6396484,52.4153646 33.8230794,51.711263 34.1899414,51.2646484 C34.5568034,50.8180339 35.0136719,50.5947266 35.5605469,50.5947266 C36.1210938,50.5947266 36.5927734,50.8271484 36.9755859,51.2919922 C37.3583984,51.7568359 37.5498047,52.4860026 37.5498047,53.4794922 C37.5498047,54.3818359 37.3618164,55.0528971 36.9858398,55.4926758 C36.6098633,55.9324544 36.1529948,56.1523438 35.6152344,56.1523438 Z M41.8427734,48.3935547 L41.8427734,46.9785156 L40.6123047,46.9785156 L40.6123047,48.3935547 L41.8427734,48.3935547 Z M41.8427734,57 L41.8427734,49.7402344 L40.6123047,49.7402344 L40.6123047,57 L41.8427734,57 Z M44.9462891,57 L44.9462891,53.0351562 C44.9462891,52.1054688 45.136556,51.4742839 45.5170898,51.1416016 C45.8976237,50.8089193 46.3499349,50.6425781 46.8740234,50.6425781 C47.2021484,50.6425781 47.4881185,50.7166341 47.7319336,50.8647461 C47.9757487,51.0128581 48.1455078,51.2111003 48.2412109,51.4594727 C48.3369141,51.7078451 48.3847656,52.0826823 48.3847656,52.5839844 L48.3847656,52.5839844 L48.3847656,57 L49.6152344,57 L49.6152344,52.5361328 C49.6152344,51.9664714 49.5924479,51.5677083 49.546875,51.3398438 C49.4739583,50.9889323 49.3463542,50.6858724 49.1640625,50.4306641 C48.9817708,50.1754557 48.707194,49.9692383 48.340332,49.8120117 C47.9734701,49.6547852 47.5712891,49.5761719 47.1337891,49.5761719 C46.1266276,49.5761719 45.3564453,49.9749349 44.8232422,50.7724609 L44.8232422,50.7724609 L44.8232422,49.7402344 L43.7158203,49.7402344 L43.7158203,57 L44.9462891,57 Z M54.1474609,59.9462891 C54.8766276,59.9462891 55.4907227,59.8095703 55.9897461,59.5361328 C56.4887695,59.2626953 56.8533529,58.8901367 57.0834961,58.418457 C57.3136393,57.9467773 57.4287109,57.1458333 57.4287109,56.015625 L57.4287109,56.015625 L57.4287109,49.7402344 L56.2939453,49.7402344 L56.2939453,50.6152344 C55.7379557,49.922526 55.0315755,49.5761719 54.1748047,49.5761719 C53.5322266,49.5761719 52.972819,49.7356771 52.496582,50.0546875 C52.0203451,50.3736979 51.656901,50.8260091 51.40625,51.4116211 C51.155599,51.9972331 51.0302734,52.6363932 51.0302734,53.3291016 C51.0302734,54.336263 51.3037109,55.1998698 51.8505859,55.9199219 C52.3974609,56.639974 53.1699219,57 54.1679688,57 C54.9700521,57 55.639974,56.6832682 56.1777344,56.0498047 C56.1822917,56.851888 56.1526693,57.3782552 56.0888672,57.6289062 C55.9794922,58.0390625 55.7698568,58.3580729 55.4599609,58.5859375 C55.1500651,58.8138021 54.7102865,58.9277344 54.140625,58.9277344 C53.6119792,58.9277344 53.194987,58.8138021 52.8896484,58.5859375 C52.6617839,58.4173177 52.5227865,58.1484375 52.4726562,57.7792969 L52.4726562,57.7792969 L51.2763672,57.6015625 C51.258138,58.3854167 51.515625,58.972168 52.0488281,59.3618164 C52.5820312,59.7514648 53.2815755,59.9462891 54.1474609,59.9462891 Z M54.2841797,55.9814453 C53.7145182,55.9814453 53.2405599,55.7626953 52.8623047,55.3251953 C52.4840495,54.8876953 52.2949219,54.1927083 52.2949219,53.2402344 C52.2949219,52.3652344 52.4863281,51.7055664 52.8691406,51.2612305 C53.2519531,50.8168945 53.7167969,50.5947266 54.2636719,50.5947266 C54.8196615,50.5947266 55.2947591,50.8203125 55.6889648,51.2714844 C56.0831706,51.7226562 56.2802734,52.3925781 56.2802734,53.28125 C56.2802734,54.2109375 56.0888672,54.8933919 55.7060547,55.3286133 C55.3232422,55.7638346 54.8492839,55.9814453 54.2841797,55.9814453 Z M65.7890625,57.1640625 C66.358724,57.1640625 66.8691406,57.0649414 67.3203125,56.8666992 C67.7714844,56.668457 68.1166992,56.3881836 68.355957,56.0258789 C68.5952148,55.6635742 68.7148438,55.2773438 68.7148438,54.8671875 C68.7148438,54.4479167 68.616862,54.0970052 68.4208984,53.8144531 C68.2249349,53.531901 67.9549154,53.316569 67.6108398,53.168457 C67.2667643,53.0203451 66.6595052,52.8300781 65.7890625,52.5976562 C65.1875,52.4335938 64.8251953,52.328776 64.7021484,52.2832031 C64.4879557,52.1966146 64.3307292,52.0872396 64.2304688,51.9550781 C64.1302083,51.827474 64.0800781,51.6839193 64.0800781,51.5244141 C64.0800781,51.273763 64.2008464,51.055013 64.4423828,50.8681641 C64.6839193,50.6813151 65.0872396,50.5878906 65.6523438,50.5878906 C66.1308594,50.5878906 66.5011393,50.6927083 66.7631836,50.9023438 C67.0252279,51.1119792 67.1835938,51.4036458 67.2382812,51.7773438 L67.2382812,51.7773438 L68.4414062,51.6132812 C68.3639323,51.1438802 68.2226562,50.769043 68.0175781,50.4887695 C67.8125,50.2084961 67.4946289,49.9863281 67.0639648,49.8222656 C66.6333008,49.6582031 66.133138,49.5761719 65.5634766,49.5761719 C65.1852214,49.5761719 64.8308919,49.6251628 64.5004883,49.7231445 C64.1700846,49.8211263 63.9091797,49.9407552 63.7177734,50.0820312 C63.4625651,50.2643229 63.2609049,50.4933268 63.112793,50.769043 C62.964681,51.0447591 62.890625,51.344401 62.890625,51.6679688 C62.890625,52.0234375 62.9806315,52.3481445 63.1606445,52.6420898 C63.3406576,52.9360352 63.6049805,53.1661784 63.9536133,53.3325195 C64.3022461,53.4988607 64.9277344,53.6959635 65.8300781,53.9238281 C66.5,54.0924479 66.9192708,54.2314453 67.0878906,54.3408203 C67.3294271,54.5003255 67.4501953,54.7190755 67.4501953,54.9970703 C67.4501953,55.3069661 67.3134766,55.5769857 67.0400391,55.8071289 C66.7666016,56.0372721 66.3473307,56.1523438 65.7822266,56.1523438 C65.2216797,56.1523438 64.785319,56.0224609 64.4731445,55.7626953 C64.1609701,55.5029297 63.9707031,55.1292318 63.9023438,54.6416016 L63.9023438,54.6416016 L62.6855469,54.8330078 C62.8222656,55.6031901 63.1378581,56.1842448 63.6323242,56.5761719 C64.1267904,56.968099 64.8457031,57.1640625 65.7890625,57.1640625 Z M71.4082031,59.7822266 L71.4082031,56.2480469 C71.6178385,56.5123698 71.8855794,56.7311198 72.2114258,56.9042969 C72.5372721,57.077474 72.9052734,57.1640625 73.3154297,57.1640625 C73.8759766,57.1640625 74.410319,57.0056966 74.918457,56.6889648 C75.4265951,56.3722331 75.8139648,55.9165039 76.0805664,55.3217773 C76.347168,54.7270508 76.4804688,54.0582682 76.4804688,53.3154297 C76.4804688,52.6227214 76.3597005,51.9858398 76.1181641,51.4047852 C75.8766276,50.8237305 75.5188802,50.3736979 75.0449219,50.0546875 C74.5709635,49.7356771 74.0240885,49.5761719 73.4042969,49.5761719 C72.9303385,49.5761719 72.5270182,49.668457 72.1943359,49.8530273 C71.8616536,50.0375977 71.563151,50.3144531 71.2988281,50.6835938 L71.2988281,50.6835938 L71.2988281,49.7402344 L70.1777344,49.7402344 L70.1777344,59.7822266 L71.4082031,59.7822266 Z M73.2333984,56.1523438 C72.695638,56.1523438 72.2376302,55.9290365 71.859375,55.4824219 C71.4811198,55.0358073 71.2919922,54.3453776 71.2919922,53.4111328 C71.2919922,52.476888 71.4936523,51.7648112 71.8969727,51.2749023 C72.300293,50.7849935 72.7639974,50.5400391 73.2880859,50.5400391 C73.8167318,50.5400391 74.2713216,50.7701823 74.6518555,51.2304688 C75.0323893,51.6907552 75.2226562,52.3834635 75.2226562,53.3085938 C75.2226562,54.2792969 75.027832,54.995931 74.6381836,55.4584961 C74.2485352,55.9210612 73.7802734,56.1523438 73.2333984,56.1523438 Z M81.0126953,57.1640625 C81.8557943,57.1640625 82.5485026,56.9589844 83.0908203,56.5488281 C83.633138,56.1386719 84.0045573,55.5621745 84.2050781,54.8193359 L84.2050781,54.8193359 L82.9335938,54.6621094 C82.7467448,55.1816406 82.4938151,55.5598958 82.1748047,55.796875 C81.8557943,56.0338542 81.4707031,56.1523438 81.0195312,56.1523438 C80.4134115,56.1523438 79.9075521,55.9404297 79.5019531,55.5166016 C79.0963542,55.0927734 78.8707682,54.4820964 78.8251953,53.6845703 L78.8251953,53.6845703 L84.2392578,53.6845703 C84.2438151,53.538737 84.2460938,53.429362 84.2460938,53.3564453 C84.2460938,52.1578776 83.9384766,51.2281901 83.3232422,50.5673828 C82.7080078,49.9065755 81.9150391,49.5761719 80.9443359,49.5761719 C79.9417318,49.5761719 79.1259766,49.9134115 78.4970703,50.5878906 C77.8681641,51.2623698 77.5537109,52.2102865 77.5537109,53.4316406 C77.5537109,54.6119792 77.8647461,55.5291341 78.4868164,56.1831055 C79.1088867,56.8370768 79.9508464,57.1640625 81.0126953,57.1640625 Z M82.9472656,52.6728516 L78.8935547,52.6728516 C78.9345703,52.039388 79.1476237,51.5335286 79.5327148,51.1552734 C79.917806,50.7770182 80.3929036,50.5878906 80.9580078,50.5878906 C81.5823568,50.5878906 82.0904948,50.8248698 82.4824219,51.2988281 C82.7376302,51.6041667 82.8925781,52.0621745 82.9472656,52.6728516 L82.9472656,52.6728516 Z M88.6757812,57.1640625 C89.46875,57.1640625 90.1375326,56.9282227 90.6821289,56.456543 C91.2267253,55.9848633 91.5651042,55.3320312 91.6972656,54.4980469 L91.6972656,54.4980469 L90.4873047,54.3408203 C90.4007161,54.9560547 90.195638,55.4117839 89.8720703,55.7080078 C89.5485026,56.0042318 89.1451823,56.1523438 88.6621094,56.1523438 C88.0605469,56.1523438 87.5729167,55.9313151 87.1992188,55.4892578 C86.8255208,55.0472005 86.6386719,54.3385417 86.6386719,53.3632812 C86.6386719,52.4016927 86.8323568,51.6987305 87.2197266,51.2543945 C87.6070964,50.8100586 88.1106771,50.5878906 88.7304688,50.5878906 C89.140625,50.5878906 89.4903971,50.7109375 89.7797852,50.9570312 C90.0691732,51.203125 90.2708333,51.569987 90.3847656,52.0576172 L90.3847656,52.0576172 L91.5810547,51.8730469 C91.4397786,51.1393229 91.1184896,50.5730794 90.6171875,50.1743164 C90.1158854,49.7755534 89.4710286,49.5761719 88.6826172,49.5761719 C88.0582682,49.5761719 87.4806315,49.7231445 86.949707,50.0170898 C86.4187826,50.3110352 86.0234375,50.7519531 85.7636719,51.3398438 C85.5039062,51.9277344 85.3740234,52.6136068 85.3740234,53.3974609 C85.3740234,54.6097005 85.675944,55.5405273 86.2797852,56.1899414 C86.8836263,56.8393555 87.6822917,57.1640625 88.6757812,57.1640625 Z M93.9873047,48.3935547 L93.9873047,46.9785156 L92.7568359,46.9785156 L92.7568359,48.3935547 L93.9873047,48.3935547 Z M93.9873047,57 L93.9873047,49.7402344 L92.7568359,49.7402344 L92.7568359,57 L93.9873047,57 Z M97.9248047,57.1640625 C98.4078776,57.1640625 98.8601888,57.0843099 99.2817383,56.9248047 C99.7032878,56.7652995 100.141927,56.491862 100.597656,56.1044922 C100.634115,56.4462891 100.716146,56.7447917 100.84375,57 L100.84375,57 L102.128906,57 C101.973958,56.7220052 101.87028,56.4314779 101.817871,56.128418 C101.765462,55.8253581 101.739258,55.101888 101.739258,53.9580078 L101.739258,52.3173828 C101.739258,51.7705078 101.71875,51.3922526 101.677734,51.1826172 C101.604818,50.8453776 101.477214,50.5662435 101.294922,50.3452148 C101.11263,50.1241862 100.827799,49.9407552 100.44043,49.7949219 C100.05306,49.6490885 99.5494792,49.5761719 98.9296875,49.5761719 C98.3053385,49.5761719 97.7561849,49.6616211 97.2822266,49.8325195 C96.8082682,50.003418 96.4459635,50.2472331 96.1953125,50.5639648 C95.9446615,50.8806966 95.7646484,51.2965495 95.6552734,51.8115234 L95.6552734,51.8115234 L96.8583984,51.9755859 C96.9905599,51.460612 97.1944987,51.1017253 97.4702148,50.8989258 C97.745931,50.6961263 98.1731771,50.5947266 98.7519531,50.5947266 C99.3717448,50.5947266 99.8388672,50.733724 100.15332,51.0117188 C100.385742,51.2167969 100.501953,51.569987 100.501953,52.0712891 C100.501953,52.116862 100.499674,52.2239583 100.495117,52.3925781 C100.025716,52.5566406 99.2942708,52.6979167 98.3007812,52.8164062 C97.813151,52.875651 97.4485677,52.9371745 97.2070312,53.0009766 C96.8789062,53.0921224 96.5838216,53.2265625 96.3217773,53.4042969 C96.0597331,53.5820312 95.847819,53.8178711 95.6860352,54.1118164 C95.5242513,54.4057617 95.4433594,54.7304688 95.4433594,55.0859375 C95.4433594,55.6920573 95.6575521,56.1899414 96.0859375,56.5795898 C96.5143229,56.9692383 97.1272786,57.1640625 97.9248047,57.1640625 Z M98.21875,56.2001953 C97.7402344,56.2001953 97.3767904,56.0908203 97.128418,55.8720703 C96.8800456,55.6533203 96.7558594,55.3798828 96.7558594,55.0517578 C96.7558594,54.8375651 96.8128255,54.6427409 96.9267578,54.4672852 C97.0406901,54.2918294 97.202474,54.1585286 97.4121094,54.0673828 C97.6217448,53.976237 97.9794922,53.8942057 98.4853516,53.8212891 C99.3785807,53.6936849 100.048503,53.538737 100.495117,53.3564453 L100.495117,53.3564453 L100.495117,53.8076172 C100.495117,54.3499349 100.429036,54.7600911 100.296875,55.0380859 C100.123698,55.398112 99.8525391,55.6818034 99.4833984,55.8891602 C99.1142578,56.0965169 98.6927083,56.2001953 98.21875,56.2001953 Z M104.849609,57 L104.849609,46.9785156 L103.619141,46.9785156 L103.619141,57 L104.849609,57 Z M113.257812,57.1640625 C113.827474,57.1640625 114.337891,57.0649414 114.789062,56.8666992 C115.240234,56.668457 115.585449,56.3881836 115.824707,56.0258789 C116.063965,55.6635742 116.183594,55.2773438 116.183594,54.8671875 C116.183594,54.4479167 116.085612,54.0970052 115.889648,53.8144531 C115.693685,53.531901 115.423665,53.316569 115.07959,53.168457 C114.735514,53.0203451 114.128255,52.8300781 113.257812,52.5976562 C112.65625,52.4335938 112.293945,52.328776 112.170898,52.2832031 C111.956706,52.1966146 111.799479,52.0872396 111.699219,51.9550781 C111.598958,51.827474 111.548828,51.6839193 111.548828,51.5244141 C111.548828,51.273763 111.669596,51.055013 111.911133,50.8681641 C112.152669,50.6813151 112.55599,50.5878906 113.121094,50.5878906 C113.599609,50.5878906 113.969889,50.6927083 114.231934,50.9023438 C114.493978,51.1119792 114.652344,51.4036458 114.707031,51.7773438 L114.707031,51.7773438 L115.910156,51.6132812 C115.832682,51.1438802 115.691406,50.769043 115.486328,50.4887695 C115.28125,50.2084961 114.963379,49.9863281 114.532715,49.8222656 C114.102051,49.6582031 113.601888,49.5761719 113.032227,49.5761719 C112.653971,49.5761719 112.299642,49.6251628 111.969238,49.7231445 C111.638835,49.8211263 111.37793,49.9407552 111.186523,50.0820312 C110.931315,50.2643229 110.729655,50.4933268 110.581543,50.769043 C110.433431,51.0447591 110.359375,51.344401 110.359375,51.6679688 C110.359375,52.0234375 110.449382,52.3481445 110.629395,52.6420898 C110.809408,52.9360352 111.07373,53.1661784 111.422363,53.3325195 C111.770996,53.4988607 112.396484,53.6959635 113.298828,53.9238281 C113.96875,54.0924479 114.388021,54.2314453 114.556641,54.3408203 C114.798177,54.5003255 114.918945,54.7190755 114.918945,54.9970703 C114.918945,55.3069661 114.782227,55.5769857 114.508789,55.8071289 C114.235352,56.0372721 113.816081,56.1523438 113.250977,56.1523438 C112.69043,56.1523438 112.254069,56.0224609 111.941895,55.7626953 C111.62972,55.5029297 111.439453,55.1292318 111.371094,54.6416016 L111.371094,54.6416016 L110.154297,54.8330078 C110.291016,55.6031901 110.606608,56.1842448 111.101074,56.5761719 C111.59554,56.968099 112.314453,57.1640625 113.257812,57.1640625 Z M119.581055,57.0957031 C119.854492,57.0957031 120.164388,57.0592448 120.510742,56.9863281 L120.510742,56.9863281 L120.333008,55.8994141 C120.109701,55.9313151 119.929688,55.9472656 119.792969,55.9472656 C119.610677,55.9472656 119.47054,55.9176432 119.372559,55.8583984 C119.274577,55.7991536 119.203939,55.719401 119.160645,55.6191406 C119.11735,55.5188802 119.095703,55.2932943 119.095703,54.9423828 L119.095703,54.9423828 L119.095703,50.6972656 L120.333008,50.6972656 L120.333008,49.7402344 L119.095703,49.7402344 L119.095703,47.2041016 L117.87207,47.9423828 L117.87207,49.7402344 L116.969727,49.7402344 L116.969727,50.6972656 L117.87207,50.6972656 L117.87207,54.8740234 C117.87207,55.6123047 117.922201,56.0965169 118.022461,56.3266602 C118.122721,56.5568034 118.295898,56.742513 118.541992,56.8837891 C118.788086,57.0250651 119.13444,57.0957031 119.581055,57.0957031 Z M124.584961,57.1640625 C125.42806,57.1640625 126.120768,56.9589844 126.663086,56.5488281 C127.205404,56.1386719 127.576823,55.5621745 127.777344,54.8193359 L127.777344,54.8193359 L126.505859,54.6621094 C126.31901,55.1816406 126.066081,55.5598958 125.74707,55.796875 C125.42806,56.0338542 125.042969,56.1523438 124.591797,56.1523438 C123.985677,56.1523438 123.479818,55.9404297 123.074219,55.5166016 C122.66862,55.0927734 122.443034,54.4820964 122.397461,53.6845703 L122.397461,53.6845703 L127.811523,53.6845703 C127.816081,53.538737 127.818359,53.429362 127.818359,53.3564453 C127.818359,52.1578776 127.510742,51.2281901 126.895508,50.5673828 C126.280273,49.9065755 125.487305,49.5761719 124.516602,49.5761719 C123.513997,49.5761719 122.698242,49.9134115 122.069336,50.5878906 C121.44043,51.2623698 121.125977,52.2102865 121.125977,53.4316406 C121.125977,54.6119792 121.437012,55.5291341 122.059082,56.1831055 C122.681152,56.8370768 123.523112,57.1640625 124.584961,57.1640625 Z M126.519531,52.6728516 L122.46582,52.6728516 C122.506836,52.039388 122.719889,51.5335286 123.10498,51.1552734 C123.490072,50.7770182 123.965169,50.5878906 124.530273,50.5878906 C125.154622,50.5878906 125.66276,50.8248698 126.054688,51.2988281 C126.309896,51.6041667 126.464844,52.0621745 126.519531,52.6728516 L126.519531,52.6728516 Z M132.371094,57.1640625 C133.214193,57.1640625 133.906901,56.9589844 134.449219,56.5488281 C134.991536,56.1386719 135.362956,55.5621745 135.563477,54.8193359 L135.563477,54.8193359 L134.291992,54.6621094 C134.105143,55.1816406 133.852214,55.5598958 133.533203,55.796875 C133.214193,56.0338542 132.829102,56.1523438 132.37793,56.1523438 C131.77181,56.1523438 131.265951,55.9404297 130.860352,55.5166016 C130.454753,55.0927734 130.229167,54.4820964 130.183594,53.6845703 L130.183594,53.6845703 L135.597656,53.6845703 C135.602214,53.538737 135.604492,53.429362 135.604492,53.3564453 C135.604492,52.1578776 135.296875,51.2281901 134.681641,50.5673828 C134.066406,49.9065755 133.273438,49.5761719 132.302734,49.5761719 C131.30013,49.5761719 130.484375,49.9134115 129.855469,50.5878906 C129.226562,51.2623698 128.912109,52.2102865 128.912109,53.4316406 C128.912109,54.6119792 129.223145,55.5291341 129.845215,56.1831055 C130.467285,56.8370768 131.309245,57.1640625 132.371094,57.1640625 Z M134.305664,52.6728516 L130.251953,52.6728516 C130.292969,52.039388 130.506022,51.5335286 130.891113,51.1552734 C131.276204,50.7770182 131.751302,50.5878906 132.316406,50.5878906 C132.940755,50.5878906 133.448893,50.8248698 133.84082,51.2988281 C134.096029,51.6041667 134.250977,52.0621745 134.305664,52.6728516 L134.305664,52.6728516 Z M138.311523,57 L138.311523,46.9785156 L137.081055,46.9785156 L137.081055,57 L138.311523,57 Z M146.719727,57.1640625 C147.289388,57.1640625 147.799805,57.0649414 148.250977,56.8666992 C148.702148,56.668457 149.047363,56.3881836 149.286621,56.0258789 C149.525879,55.6635742 149.645508,55.2773438 149.645508,54.8671875 C149.645508,54.4479167 149.547526,54.0970052 149.351562,53.8144531 C149.155599,53.531901 148.885579,53.316569 148.541504,53.168457 C148.197428,53.0203451 147.590169,52.8300781 146.719727,52.5976562 C146.118164,52.4335938 145.755859,52.328776 145.632812,52.2832031 C145.41862,52.1966146 145.261393,52.0872396 145.161133,51.9550781 C145.060872,51.827474 145.010742,51.6839193 145.010742,51.5244141 C145.010742,51.273763 145.13151,51.055013 145.373047,50.8681641 C145.614583,50.6813151 146.017904,50.5878906 146.583008,50.5878906 C147.061523,50.5878906 147.431803,50.6927083 147.693848,50.9023438 C147.955892,51.1119792 148.114258,51.4036458 148.168945,51.7773438 L148.168945,51.7773438 L149.37207,51.6132812 C149.294596,51.1438802 149.15332,50.769043 148.948242,50.4887695 C148.743164,50.2084961 148.425293,49.9863281 147.994629,49.8222656 C147.563965,49.6582031 147.063802,49.5761719 146.494141,49.5761719 C146.115885,49.5761719 145.761556,49.6251628 145.431152,49.7231445 C145.100749,49.8211263 144.839844,49.9407552 144.648438,50.0820312 C144.393229,50.2643229 144.191569,50.4933268 144.043457,50.769043 C143.895345,51.0447591 143.821289,51.344401 143.821289,51.6679688 C143.821289,52.0234375 143.911296,52.3481445 144.091309,52.6420898 C144.271322,52.9360352 144.535645,53.1661784 144.884277,53.3325195 C145.23291,53.4988607 145.858398,53.6959635 146.760742,53.9238281 C147.430664,54.0924479 147.849935,54.2314453 148.018555,54.3408203 C148.260091,54.5003255 148.380859,54.7190755 148.380859,54.9970703 C148.380859,55.3069661 148.244141,55.5769857 147.970703,55.8071289 C147.697266,56.0372721 147.277995,56.1523438 146.712891,56.1523438 C146.152344,56.1523438 145.715983,56.0224609 145.403809,55.7626953 C145.091634,55.5029297 144.901367,55.1292318 144.833008,54.6416016 L144.833008,54.6416016 L143.616211,54.8330078 C143.75293,55.6031901 144.068522,56.1842448 144.562988,56.5761719 C145.057454,56.968099 145.776367,57.1640625 146.719727,57.1640625 Z M154.054688,57.1640625 C154.688151,57.1640625 155.272624,57.0159505 155.808105,56.7197266 C156.343587,56.4235026 156.751465,56.0076497 157.031738,55.472168 C157.312012,54.9366862 157.452148,54.2018229 157.452148,53.2675781 C157.452148,52.1145833 157.135417,51.2111003 156.501953,50.5571289 C155.86849,49.9031576 155.052734,49.5761719 154.054688,49.5761719 C153.156901,49.5761719 152.395833,49.8450521 151.771484,50.3828125 C151.024089,51.0299479 150.650391,52.0257161 150.650391,53.3701172 C150.650391,54.5960286 150.963704,55.5348307 151.590332,56.1865234 C152.21696,56.8382161 153.038411,57.1640625 154.054688,57.1640625 Z M154.054688,56.1523438 C153.439453,56.1523438 152.929036,55.9210612 152.523438,55.4584961 C152.117839,54.995931 151.915039,54.2998047 151.915039,53.3701172 C151.915039,52.4404297 152.117839,51.7454427 152.523438,51.2851562 C152.929036,50.8248698 153.439453,50.5947266 154.054688,50.5947266 C154.660807,50.5947266 155.167806,50.8260091 155.575684,51.2885742 C155.983561,51.7511393 156.1875,52.4313151 156.1875,53.3291016 C156.1875,54.2815755 155.984701,54.9902344 155.579102,55.4550781 C155.173503,55.9199219 154.665365,56.1523438 154.054688,56.1523438 Z M160.097656,57 L160.097656,46.9785156 L158.867188,46.9785156 L158.867188,57 L160.097656,57 Z M164.458984,57.1640625 C165.429688,57.1640625 166.197591,56.7539062 166.762695,55.9335938 L166.762695,55.9335938 L166.762695,57 L167.863281,57 L167.863281,49.7402344 L166.632812,49.7402344 L166.632812,53.6298828 C166.632812,54.2496745 166.565592,54.7224935 166.431152,55.0483398 C166.296712,55.3741862 166.067708,55.6316732 165.744141,55.8208008 C165.420573,56.0099284 165.074219,56.1044922 164.705078,56.1044922 C164.335938,56.1044922 164.026042,56.012207 163.775391,55.8276367 C163.52474,55.6430664 163.360677,55.3889974 163.283203,55.0654297 C163.233073,54.8421224 163.208008,54.4091797 163.208008,53.7666016 L163.208008,49.7402344 L161.977539,49.7402344 L161.977539,54.2382812 C161.977539,54.7623698 162.002604,55.1451823 162.052734,55.3867188 C162.125651,55.7467448 162.252116,56.050944 162.432129,56.2993164 C162.612142,56.5476888 162.887858,56.7539062 163.259277,56.9179688 C163.630697,57.0820312 164.030599,57.1640625 164.458984,57.1640625 Z M171.725586,57.0957031 C171.999023,57.0957031 172.308919,57.0592448 172.655273,56.9863281 L172.655273,56.9863281 L172.477539,55.8994141 C172.254232,55.9313151 172.074219,55.9472656 171.9375,55.9472656 C171.755208,55.9472656 171.615072,55.9176432 171.51709,55.8583984 C171.419108,55.7991536 171.34847,55.719401 171.305176,55.6191406 C171.261882,55.5188802 171.240234,55.2932943 171.240234,54.9423828 L171.240234,54.9423828 L171.240234,50.6972656 L172.477539,50.6972656 L172.477539,49.7402344 L171.240234,49.7402344 L171.240234,47.2041016 L170.016602,47.9423828 L170.016602,49.7402344 L169.114258,49.7402344 L169.114258,50.6972656 L170.016602,50.6972656 L170.016602,54.8740234 C170.016602,55.6123047 170.066732,56.0965169 170.166992,56.3266602 C170.267253,56.5568034 170.44043,56.742513 170.686523,56.8837891 C170.932617,57.0250651 171.278971,57.0957031 171.725586,57.0957031 Z M174.917969,48.3935547 L174.917969,46.9785156 L173.6875,46.9785156 L173.6875,48.3935547 L174.917969,48.3935547 Z M174.917969,57 L174.917969,49.7402344 L173.6875,49.7402344 L173.6875,57 L174.917969,57 Z M179.737305,57.1640625 C180.370768,57.1640625 180.955241,57.0159505 181.490723,56.7197266 C182.026204,56.4235026 182.434082,56.0076497 182.714355,55.472168 C182.994629,54.9366862 183.134766,54.2018229 183.134766,53.2675781 C183.134766,52.1145833 182.818034,51.2111003 182.18457,50.5571289 C181.551107,49.9031576 180.735352,49.5761719 179.737305,49.5761719 C178.839518,49.5761719 178.078451,49.8450521 177.454102,50.3828125 C176.706706,51.0299479 176.333008,52.0257161 176.333008,53.3701172 C176.333008,54.5960286 176.646322,55.5348307 177.272949,56.1865234 C177.899577,56.8382161 178.721029,57.1640625 179.737305,57.1640625 Z M179.737305,56.1523438 C179.12207,56.1523438 178.611654,55.9210612 178.206055,55.4584961 C177.800456,54.995931 177.597656,54.2998047 177.597656,53.3701172 C177.597656,52.4404297 177.800456,51.7454427 178.206055,51.2851562 C178.611654,50.8248698 179.12207,50.5947266 179.737305,50.5947266 C180.343424,50.5947266 180.850423,50.8260091 181.258301,51.2885742 C181.666178,51.7511393 181.870117,52.4313151 181.870117,53.3291016 C181.870117,54.2815755 181.667318,54.9902344 181.261719,55.4550781 C180.85612,55.9199219 180.347982,56.1523438 179.737305,56.1523438 Z M185.807617,57 L185.807617,53.0351562 C185.807617,52.1054688 185.997884,51.4742839 186.378418,51.1416016 C186.758952,50.8089193 187.211263,50.6425781 187.735352,50.6425781 C188.063477,50.6425781 188.349447,50.7166341 188.593262,50.8647461 C188.837077,51.0128581 189.006836,51.2111003 189.102539,51.4594727 C189.198242,51.7078451 189.246094,52.0826823 189.246094,52.5839844 L189.246094,52.5839844 L189.246094,57 L190.476562,57 L190.476562,52.5361328 C190.476562,51.9664714 190.453776,51.5677083 190.408203,51.3398438 C190.335286,50.9889323 190.207682,50.6858724 190.025391,50.4306641 C189.843099,50.1754557 189.568522,49.9692383 189.20166,49.8120117 C188.834798,49.6547852 188.432617,49.5761719 187.995117,49.5761719 C186.987956,49.5761719 186.217773,49.9749349 185.68457,50.7724609 L185.68457,50.7724609 L185.68457,49.7402344 L184.577148,49.7402344 L184.577148,57 L185.807617,57 Z M194.974609,57.1640625 C195.544271,57.1640625 196.054688,57.0649414 196.505859,56.8666992 C196.957031,56.668457 197.302246,56.3881836 197.541504,56.0258789 C197.780762,55.6635742 197.900391,55.2773438 197.900391,54.8671875 C197.900391,54.4479167 197.802409,54.0970052 197.606445,53.8144531 C197.410482,53.531901 197.140462,53.316569 196.796387,53.168457 C196.452311,53.0203451 195.845052,52.8300781 194.974609,52.5976562 C194.373047,52.4335938 194.010742,52.328776 193.887695,52.2832031 C193.673503,52.1966146 193.516276,52.0872396 193.416016,51.9550781 C193.315755,51.827474 193.265625,51.6839193 193.265625,51.5244141 C193.265625,51.273763 193.386393,51.055013 193.62793,50.8681641 C193.869466,50.6813151 194.272786,50.5878906 194.837891,50.5878906 C195.316406,50.5878906 195.686686,50.6927083 195.94873,50.9023438 C196.210775,51.1119792 196.369141,51.4036458 196.423828,51.7773438 L196.423828,51.7773438 L197.626953,51.6132812 C197.549479,51.1438802 197.408203,50.769043 197.203125,50.4887695 C196.998047,50.2084961 196.680176,49.9863281 196.249512,49.8222656 C195.818848,49.6582031 195.318685,49.5761719 194.749023,49.5761719 C194.370768,49.5761719 194.016439,49.6251628 193.686035,49.7231445 C193.355632,49.8211263 193.094727,49.9407552 192.90332,50.0820312 C192.648112,50.2643229 192.446452,50.4933268 192.29834,50.769043 C192.150228,51.0447591 192.076172,51.344401 192.076172,51.6679688 C192.076172,52.0234375 192.166178,52.3481445 192.346191,52.6420898 C192.526204,52.9360352 192.790527,53.1661784 193.13916,53.3325195 C193.487793,53.4988607 194.113281,53.6959635 195.015625,53.9238281 C195.685547,54.0924479 196.104818,54.2314453 196.273438,54.3408203 C196.514974,54.5003255 196.635742,54.7190755 196.635742,54.9970703 C196.635742,55.3069661 196.499023,55.5769857 196.225586,55.8071289 C195.952148,56.0372721 195.532878,56.1523438 194.967773,56.1523438 C194.407227,56.1523438 193.970866,56.0224609 193.658691,55.7626953 C193.346517,55.5029297 193.15625,55.1292318 193.087891,54.6416016 L193.087891,54.6416016 L191.871094,54.8330078 C192.007812,55.6031901 192.323405,56.1842448 192.817871,56.5761719 C193.312337,56.968099 194.03125,57.1640625 194.974609,57.1640625 Z" id="Providingspecialsteelsolutions" fill="#858585"></path>
                <path d="M5.51269531,33.2197266 C6.75488281,33.2197266 7.75830078,32.980957 8.52294922,32.503418 C9.28759766,32.0258789 9.81640625,31.40625 10.109375,30.6445312 C10.4023438,29.8828125 10.5488281,28.8544922 10.5488281,27.5595703 L10.5488281,27.5595703 L10.5488281,20.1152344 L8.84375,20.1152344 L8.84375,27.5507812 C8.84375,29.1679688 8.57714844,30.2607422 8.04394531,30.8291016 C7.51074219,31.3974609 6.6171875,31.6816406 5.36328125,31.6816406 C4.63085938,31.6816406 4.01123047,31.5380859 3.50439453,31.2509766 C2.99755859,30.9638672 2.64013672,30.5551758 2.43212891,30.0249023 C2.22412109,29.4946289 2.12011719,28.6699219 2.12011719,27.5507812 L2.12011719,27.5507812 L2.12011719,20.1152344 L0.415039062,20.1152344 L0.415039062,27.5595703 C0.415039062,28.9248047 0.579101562,30.0014648 0.907226562,30.7895508 C1.23535156,31.5776367 1.78320312,32.1796875 2.55078125,32.5957031 C3.31835938,33.0117188 4.30566406,33.2197266 5.51269531,33.2197266 Z M19.5400391,33.2197266 C20.4775391,33.2197266 21.3916016,33.0512695 22.2822266,32.7143555 C23.1728516,32.3774414 24.0371094,31.875 24.875,31.2070312 L24.875,31.2070312 L24.875,26.4257812 L19.4169922,26.4345703 L19.4169922,27.9462891 L23.2050781,27.9462891 L23.2050781,30.3457031 C22.8417969,30.6679688 22.3085938,30.9711914 21.6054688,31.2553711 C20.9023438,31.5395508 20.1816406,31.6816406 19.4433594,31.6816406 C18.59375,31.6816406 17.7910156,31.4941406 17.0351562,31.1191406 C16.2792969,30.7441406 15.7036133,30.1699219 15.3081055,29.3964844 C14.9125977,28.6230469 14.7148438,27.6621094 14.7148438,26.5136719 C14.7148438,25.5820312 14.8789062,24.7177734 15.2070312,23.9208984 C15.4003906,23.4580078 15.6713867,23.0332031 16.0200195,22.6464844 C16.3686523,22.2597656 16.8271484,21.9477539 17.3955078,21.7104492 C17.9638672,21.4731445 18.6376953,21.3544922 19.4169922,21.3544922 C20.0673828,21.3544922 20.6591797,21.4672852 21.1923828,21.6928711 C21.7255859,21.918457 22.1357422,22.21875 22.4228516,22.59375 C22.7099609,22.96875 22.9501953,23.484375 23.1435547,24.140625 L23.1435547,24.140625 L24.6816406,23.71875 C24.4589844,22.8515625 24.1337891,22.1484375 23.7060547,21.609375 C23.2783203,21.0703125 22.6879883,20.6499023 21.9350586,20.3481445 C21.1821289,20.0463867 20.3398438,19.8955078 19.4082031,19.8955078 C18.125,19.8955078 16.9912109,20.1591797 16.0068359,20.6865234 C15.0224609,21.2138672 14.2680664,22.0209961 13.7436523,23.1079102 C13.2192383,24.1948242 12.9570312,25.3652344 12.9570312,26.6191406 C12.9570312,27.8847656 13.2207031,29.0302734 13.7480469,30.0556641 C14.2753906,31.0810547 15.0561523,31.8647461 16.090332,32.4067383 C17.1245117,32.9487305 18.2744141,33.2197266 19.5400391,33.2197266 Z M29.3837891,33 L29.3837891,20.1152344 L27.6787109,20.1152344 L27.6787109,33 L29.3837891,33 Z M37.3730469,33 L37.3730469,21.6357422 L41.6357422,21.6357422 L41.6357422,20.1152344 L31.4228516,20.1152344 L31.4228516,21.6357422 L35.6679688,21.6357422 L35.6679688,33 L37.3730469,33 Z M53.0351562,33 L53.0351562,31.4794922 L45.125,31.4794922 L45.125,27.09375 L52.2529297,27.09375 L52.2529297,25.5820312 L45.125,25.5820312 L45.125,21.6357422 L52.7363281,21.6357422 L52.7363281,20.1152344 L43.4199219,20.1152344 L43.4199219,33 L53.0351562,33 Z M60.9541016,33.2197266 C62.2958984,33.2197266 63.4311523,32.8520508 64.3598633,32.1166992 C65.2885742,31.3813477 65.9316406,30.3134766 66.2890625,28.9130859 L66.2890625,28.9130859 L64.5839844,28.4824219 C64.3496094,29.5664062 63.9013672,30.3837891 63.2392578,30.9345703 C62.5771484,31.4853516 61.7685547,31.7607422 60.8134766,31.7607422 C60.0283203,31.7607422 59.2988281,31.5585938 58.625,31.1542969 C57.9511719,30.75 57.4545898,30.1391602 57.1352539,29.3217773 C56.815918,28.5043945 56.65625,27.5478516 56.65625,26.4521484 C56.65625,25.6025391 56.7910156,24.777832 57.0605469,23.9780273 C57.3300781,23.1782227 57.7973633,22.5410156 58.4624023,22.0664062 C59.1274414,21.5917969 59.9550781,21.3544922 60.9453125,21.3544922 C61.8066406,21.3544922 62.5214844,21.5683594 63.0898438,21.9960938 C63.6582031,22.4238281 64.0917969,23.1064453 64.390625,24.0439453 L64.390625,24.0439453 L66.0693359,23.6484375 C65.7236328,22.4589844 65.1113281,21.5361328 64.2324219,20.8798828 C63.3535156,20.2236328 62.2695312,19.8955078 60.9804688,19.8955078 C59.84375,19.8955078 58.8022461,20.1547852 57.855957,20.6733398 C56.909668,21.1918945 56.1801758,21.9506836 55.6674805,22.949707 C55.1547852,23.9487305 54.8984375,25.1191406 54.8984375,26.4609375 C54.8984375,27.6914062 55.1254883,28.8427734 55.5795898,29.9150391 C56.0336914,30.9873047 56.6958008,31.8061523 57.565918,32.371582 C58.4360352,32.9370117 59.5654297,33.2197266 60.9541016,33.2197266 Z M70.1474609,33 L70.1474609,26.9267578 L76.8447266,26.9267578 L76.8447266,33 L78.5498047,33 L78.5498047,20.1152344 L76.8447266,20.1152344 L76.8447266,25.40625 L70.1474609,25.40625 L70.1474609,20.1152344 L68.4423828,20.1152344 L68.4423828,33 L70.1474609,33 Z" id="UGITECH" fill="#00528D"></path>
            </g>
        </g>
    </g>
</svg>